<?xml version="1.0" standalone="no"?>
<!DOCTYPE svg PUBLIC "-//W3C//DTD SVG 1.1//EN" "http://www.w3.org/Graphics/SVG/1.1/DTD/svg11.dtd" >
<svg xmlns="http://www.w3.org/2000/svg">
<metadata></metadata>
<defs>
<font id="amelia_btregular" horiz-adv-x="909" >
<font-face units-per-em="2048" ascent="1556" descent="-492" />
<missing-glyph horiz-adv-x="455" />
<glyph horiz-adv-x="0" />
<glyph unicode="&#xd;" horiz-adv-x="455" />
<glyph unicode=" "  horiz-adv-x="455" />
<glyph unicode="&#x09;" horiz-adv-x="455" />
<glyph unicode="&#xa0;" horiz-adv-x="455" />
<glyph unicode="!" horiz-adv-x="483" d="M76 1305q0 89 44 138.5t122 49.5q77 0 120.5 -49.5t43.5 -138.5q-1 -20 -2.5 -42.5t-4.5 -46.5l-100 -692q-6 -35 -21.5 -55t-35.5 -20q-21 0 -36.5 20t-21.5 55l-100 693l-1 7q-7 57 -7 81zM80 152q0 66 48 113.5t114 47.5t113.5 -47.5t47.5 -113.5q0 -68 -47 -115 t-114 -47q-68 0 -115 47t-47 115z" />
<glyph unicode="&#x22;" horiz-adv-x="678" d="M80 879v559h192v-559h-192zM406 879v559h192v-559h-192z" />
<glyph unicode="#" horiz-adv-x="1575" d="M45 406l76 200h282l86 242h-299l74 201h297l148 415h221l-146 -415h242l148 415h221l-148 -415h283l-74 -201h-280l-84 -242h290l-71 -200h-291l-148 -416h-221l148 416h-244l-149 -416h-220l146 416h-287zM621 604h251l86 244h-249z" />
<glyph unicode="$" d="M68 289v10v104q0 99 39.5 141t130.5 42t130.5 -41.5t39.5 -141.5v-63q0 -105 38 -154t119 -49q77 0 118.5 43.5t41.5 124.5q0 63 -24.5 104.5t-79.5 73.5l-375 219q-88 50 -133 106t-45 114v4v245q0 161 71 229t250 91v43q0 43 14.5 62.5t47.5 19.5t47 -18.5t14 -63.5 v-43q175 -20 252.5 -100.5t77.5 -245.5v-8v-41q0 -98 -39 -138t-129 -40q-91 0 -128.5 39.5t-37.5 138.5v57q0 101 -39.5 149t-122.5 48q-73 0 -117.5 -40.5t-44.5 -107.5q0 -54 25.5 -94.5t81.5 -73.5l401 -237q80 -47 116 -96t36 -111v-238q0 -181 -74 -257.5t-258 -100.5 v-43q0 -44 -14.5 -64t-46.5 -20q-34 0 -48 19t-14 65v43q-186 35 -253.5 94.5t-67.5 200.5z" />
<glyph unicode="%" horiz-adv-x="1374" d="M74 934v366q0 102 67.5 147.5t216.5 45.5q139 0 207 -53.5t68 -163.5v-315q0 -109 -68 -162.5t-207 -53.5q-151 0 -217.5 44.5t-66.5 144.5zM147 -12q1 10 4.5 19.5t14.5 27.5l950 1478q12 18 25 27.5t24 9.5q20 0 36 -14t16 -31q-1 -15 -18 -42q-2 -3 -3 -5l-950 -1476 q-12 -19 -25.5 -29t-23.5 -10q-20 0 -35 13.5t-15 31.5zM313 997q0 -79 27.5 -112t91.5 -33q63 0 90 29.5t27 107.5v258q0 80 -26.5 112t-90.5 32t-91.5 -30.5t-27.5 -107.5v-256zM735 182v367q0 101 68 146.5t217 45.5q139 0 207.5 -53.5t68.5 -163.5v-315q0 -109 -69 -164 t-207 -55q-150 0 -217.5 45.5t-67.5 146.5zM977 244q0 -80 26.5 -112t90.5 -32q63 0 90.5 30.5t27.5 107.5v258q0 79 -27 111t-91 32q-63 0 -90 -29.5t-27 -107.5v-258z" />
<glyph unicode="&#x26;" horiz-adv-x="1395" d="M63 295q0 36 11.5 72t40.5 88l186 333l-211 357q-13 22 -20 47.5t-7 54.5q0 101 115 173.5t281 72.5q164 0 270.5 -85.5t106.5 -211.5q0 -29 -11.5 -66t-31.5 -77l-158 -308l72 -120l211 368q53 91 87.5 117.5t79.5 26.5q66 0 116 -46.5t50 -109.5q0 -30 -10 -61t-41 -86 l-297 -545q32 -80 75.5 -120t96.5 -40q70 0 121 48.5t51 115.5q0 29 -9.5 59.5t-35.5 77.5l-49 86q-2 5 -7 14q-16 27 -16 45q0 17 20 33.5t40 16.5q16 0 29.5 -11.5t29.5 -40.5l60 -102q21 -37 35 -89.5t14 -94.5q0 -128 -112 -212.5t-281 -84.5q-67 0 -128.5 15.5 t-123.5 47.5q-68 -32 -134 -47.5t-135 -15.5q-169 0 -275 84.5t-106 220.5zM176 287q0 -67 45 -112.5t109 -45.5q56 0 105.5 41.5t92.5 124.5l-188 321l-147 -264q-9 -14 -13 -31t-4 -34zM403 1198q0 -27 7.5 -53.5t19.5 -46.5l139 -230l125 226q14 24 21.5 52t7.5 54 q0 65 -47 108.5t-117 43.5q-67 0 -111.5 -44t-44.5 -110z" />
<glyph unicode="'" horiz-adv-x="352" d="M80 879v559h192v-559h-192z" />
<glyph unicode="(" horiz-adv-x="446" d="M86 741q0 156 24.5 276.5t77.5 239.5q61 134 100 187t74 53q22 0 35 -13.5t13 -37.5q0 -13 -41 -80.5t-72 -130.5q-57 -118 -82 -231t-25 -263q0 -134 21 -242.5t63 -201.5q39 -83 87.5 -165.5t48.5 -94.5q0 -23 -13 -37t-35 -14q-32 0 -65 41.5t-90 158.5 q-64 132 -92.5 260.5t-28.5 294.5z" />
<glyph unicode=")" horiz-adv-x="446" d="M35 37q0 15 40.5 83t69.5 128q59 119 84 231t25 262q0 133 -21 242.5t-63 200.5q-40 83 -87.5 167.5t-47.5 94.5q0 24 11.5 37.5t33.5 13.5q33 0 68.5 -45t89.5 -156q64 -135 92 -262.5t28 -292.5q0 -157 -24 -278t-78 -238q-59 -130 -99.5 -184.5t-76.5 -54.5 q-21 0 -33 13.5t-12 37.5z" />
<glyph unicode="*" horiz-adv-x="483" d="M33 1319q0 30 16 50t41 20q7 -1 30 -8q10 -3 16 -5l38 -12l2 47q2 47 16.5 64.5t49.5 17.5t50 -18.5t15 -63.5v-45l41 10l4 1q33 9 41 9q25 0 41.5 -20.5t16.5 -52.5q0 -21 -15 -35t-49 -25l-41 -12l27 -37q13 -17 18.5 -29.5t5.5 -27.5q0 -22 -22 -42t-43 -20 q-18 0 -31 9t-33 36l-24 35l-29 -35q-22 -26 -34 -33t-27 -7q-25 0 -45.5 18t-20.5 41q0 22 24 56l1 1l26 35l-47 16q-36 14 -47.5 27.5t-11.5 34.5z" />
<glyph unicode="+" horiz-adv-x="1706" d="M254 512v199h498v510h202v-510h498v-199h-498v-512h-202v512h-498z" />
<glyph unicode="," horiz-adv-x="455" d="M37 145q0 79 43 124.5t117 45.5q97 0 158 -71t61 -187q0 -121 -70.5 -216t-138.5 -95q-30 0 -49 19.5t-19 50.5q0 45 66 64l3 1q26 7 38 19.5t12 31.5q0 41 -76 55q-30 6 -47 11q-47 14 -72.5 52t-25.5 95z" />
<glyph unicode="-" horiz-adv-x="645" d="M47 524q0 35 19 50.5t65 15.5h383q46 0 65 -14.5t19 -49.5t-19 -50t-65 -15h-383q-46 0 -65 14.5t-19 48.5z" />
<glyph unicode="." horiz-adv-x="455" d="M66 152q0 66 47.5 113.5t113.5 47.5t114 -47.5t48 -113.5q0 -68 -47 -115t-115 -47q-67 0 -114 47t-47 115z" />
<glyph unicode="/" horiz-adv-x="707" d="M-49 -135q0 7 2 15t6 18l629 1552q9 23 22 34t31 11q25 0 45.5 -17.5t20.5 -39.5q0 -8 -9 -31l-2 -5l-626 -1552q-7 -16 -23 -28t-33 -12q-26 0 -44.5 15.5t-18.5 39.5z" />
<glyph unicode="0" d="M74 289v22v883q0 80 18 123t60 84q49 46 125.5 69t181.5 23q189 0 284 -91.5t95 -273.5v-772q0 -182 -95.5 -274t-283.5 -92q-103 0 -180 23.5t-127 70.5q-42 39 -60 82t-18 123zM401 348q0 -111 37 -154.5t123 -43.5t124 48.5t38 161.5v777q0 113 -38 162t-124 49 t-123 -44t-37 -155v-801z" />
<glyph unicode="1" d="M117 1217q0 17 11.5 31.5t35.5 25.5l366 176q51 24 75.5 34.5t31.5 10.5q20 0 28.5 -11.5t8.5 -49.5v-23v-1192q0 -124 -40.5 -176.5t-131.5 -52.5t-130.5 52.5t-39.5 176.5v864q0 65 -10.5 82t-36.5 17q-8 0 -15.5 -1.5t-16.5 -5.5l-50 -18q-12 -4 -20 -6t-15 -2 q-19 0 -35 20.5t-16 47.5z" />
<glyph unicode="2" d="M47 1047v90q0 181 95 268.5t292 87.5q168 0 269.5 -73.5t101.5 -192.5q0 -48 -22 -111.5t-64 -136.5l-307 -526q-8 -15 -12.5 -28.5t-4.5 -25.5q0 -28 16.5 -40.5t55.5 -12.5h205q98 0 139 -39.5t41 -132.5q0 -92 -42 -133t-138 -41h-486q-45 0 -71.5 20t-26.5 54t39 98 q4 7 6 10l494 852q38 67 49.5 101.5t11.5 66.5q0 66 -44 107t-114 41q-79 0 -116 -47.5t-37 -149.5v-106q0 -98 -37.5 -138.5t-126.5 -40.5t-127.5 41t-38.5 138z" />
<glyph unicode="3" d="M59 250q0 72 47.5 116t124.5 44q63 0 100.5 -30t71.5 -112q31 -74 64 -100.5t88 -26.5q78 0 123 42.5t45 115.5q0 60 -27 105.5t-80 72.5l-223 119q-53 29 -69.5 46.5t-16.5 39.5q0 17 8 38.5t31 61.5l150 251q8 14 12 27.5t4 24.5q0 28 -16 40t-56 12h-186 q-97 0 -137.5 40t-40.5 134q0 93 41 133.5t137 40.5h487q60 0 83.5 -13.5t23.5 -46.5q0 -15 -6.5 -33.5t-18.5 -37.5l-207 -353q-3 -5 -8 -13q-28 -46 -28 -81q0 -15 9 -28t29 -25l66 -41q94 -60 124 -111.5t30 -134.5v-215q0 -185 -95 -273.5t-292 -88.5 q-175 0 -283.5 72.5t-108.5 187.5z" />
<glyph unicode="4" d="M25 381q0 11 5.5 27t16.5 34l549 975q26 49 42.5 62.5t39.5 13.5q25 0 35 -9.5t10 -39.5v-33v-881q0 -46 13.5 -63.5t45.5 -17.5h31q36 0 52 -14.5t16 -47.5t-15.5 -47t-52.5 -14h-31q-32 0 -45.5 -18t-13.5 -64v-25q0 -124 -39.5 -176.5t-130.5 -52.5t-130.5 52.5 t-39.5 176.5v25q0 51 -15 67.5t-55 16.5h-229q-28 0 -43.5 13.5t-15.5 39.5zM209 496q0 -21 14 -34t35 -13h72q36 0 50.5 19t14.5 73v139q0 15 -9 25t-21 10q-17 0 -31 -9t-25 -26l-92 -158q-4 -5 -6 -12t-2 -14z" />
<glyph unicode="5" d="M35 250q0 72 47.5 116t124.5 44q62 0 98.5 -29.5t71.5 -112.5q30 -73 64 -100t89 -27q78 0 123 42.5t45 115.5q0 60 -26 103.5t-80 74.5l-449 254q-45 26 -64.5 47.5t-19.5 44.5q0 30 30 82q5 8 7 12l307 529q13 21 32 30t52 9h222q96 0 137 -40.5t41 -133.5 q0 -94 -40.5 -134t-137.5 -40h-340l-37 -55q-7 -10 -10.5 -21t-4.5 -23q0 -12 8.5 -21.5t34.5 -25.5l299 -178q82 -49 118 -101.5t36 -121.5v-238q0 -185 -94.5 -273.5t-292.5 -88.5q-174 0 -282.5 72.5t-108.5 187.5z" />
<glyph unicode="6" d="M12 287q0 39 13.5 81t42.5 93l505 882q53 90 87.5 117t80.5 27q68 0 122.5 -47t54.5 -109q0 -31 -11 -62.5t-43 -86.5l-299 -527l166 -299q20 -36 30.5 -68.5t10.5 -56.5q0 -96 -107.5 -168.5t-263.5 -72.5q-176 0 -282.5 82t-106.5 215zM127 281q0 -65 44 -107.5 t112 -42.5q71 0 117 41.5t46 106.5q0 25 -7 52t-21 52l-125 221l-139 -223q-13 -20 -20 -47t-7 -53z" />
<glyph unicode="7" d="M-14 47q0 11 4 23.5t16 31.5l539 930q9 18 13.5 30.5t4.5 22.5q0 28 -16.5 40t-57.5 12h-249q-97 0 -138 40t-41 134q0 93 41 133.5t138 40.5h542q63 0 87 -14.5t24 -47.5q0 -17 -53 -112l-6 -11l-724 -1260q-15 -26 -30 -38t-33 -12q-24 0 -42.5 17t-18.5 40z" />
<glyph unicode="8" d="M61 293q0 48 15 97.5t43 94.5l176 287l-178 338q-20 38 -30.5 71t-10.5 58q0 102 107.5 178t262.5 76q171 0 280.5 -82.5t109.5 -206.5q0 -52 -15 -105t-43 -102l-160 -278l185 -344q20 -37 30.5 -71t10.5 -60q0 -101 -111 -177.5t-270 -76.5q-181 0 -291.5 83.5 t-110.5 219.5zM180 295q0 -68 45 -113t115 -45q73 0 120.5 44t47.5 112q0 27 -7.5 55.5t-21.5 54.5l-127 232l-145 -236q-13 -20 -20 -46.5t-7 -57.5zM397 1202q0 -24 7.5 -48.5t21.5 -49.5l133 -238l139 234q14 25 21.5 51.5t7.5 52.5q0 66 -47.5 109t-120.5 43 q-69 0 -115.5 -44t-46.5 -110z" />
<glyph unicode="9" d="M63 1235q0 108 108 183t273 75q183 0 293.5 -81.5t110.5 -213.5q0 -41 -13 -83.5t-47 -104.5l-514 -967q-15 -28 -30 -40.5t-33 -12.5q-25 0 -43 17.5t-18 41.5q0 18 17 50l1 1l227 422q12 24 16.5 36.5t4.5 21.5q0 7 -6.5 21t-18.5 34l-289 473q-19 32 -29 64t-10 63z M412 1204q0 -28 7.5 -55.5t20.5 -48.5l140 -228l125 232q12 23 19 48t7 50q0 65 -44 108.5t-112 43.5q-70 0 -116.5 -42.5t-46.5 -107.5z" />
<glyph unicode=":" horiz-adv-x="483" d="M66 152q0 65 48.5 113t114.5 48t114 -47.5t48 -113.5q0 -68 -47 -115t-115 -47t-115.5 47t-47.5 115zM66 653q0 66 48.5 114t114.5 48t114 -48t48 -114q0 -67 -47 -114t-115 -47t-115.5 47t-47.5 114z" />
<glyph unicode=";" horiz-adv-x="483" d="M66 145q0 79 43 124.5t116 45.5q98 0 158.5 -71t60.5 -187q0 -121 -70.5 -216t-137.5 -95q-30 0 -49 19.5t-19 50.5q0 45 66 64l3 1q26 7 38 19.5t12 31.5q0 41 -76 55q-31 6 -47 11q-47 14 -72.5 52t-25.5 95zM66 653q0 66 48.5 114t114.5 48t114 -48t48 -114 q0 -67 -47 -114t-115 -47t-115.5 47t-47.5 114z" />
<glyph unicode="&#x3c;" horiz-adv-x="1706" d="M264 512v199l1178 483v-219l-893 -365l893 -364v-219z" />
<glyph unicode="=" horiz-adv-x="1706" d="M254 297v199h1198v-199h-1198zM254 727v199h1198v-199h-1198z" />
<glyph unicode="&#x3e;" horiz-adv-x="1706" d="M264 27v219l895 364l-895 365v219l1178 -483v-199z" />
<glyph unicode="?" horiz-adv-x="920" d="M61 1087v41q0 183 99 274t299 91q100 0 181 -26.5t132 -75.5q44 -43 63 -90t19 -136v-35v-270q0 -59 -47 -118t-137 -111l-320 -185q-38 -20 -62.5 -28t-47.5 -8q-72 0 -124.5 56t-52.5 132q0 92 114 159q8 5 11 7l437 260q55 33 81.5 74t26.5 96q0 69 -45 111.5 t-119 42.5q-83 0 -121 -49t-38 -154v-58q0 -99 -40 -140.5t-134 -41.5t-134.5 42t-40.5 140zM76 154q0 67 49 116t117 49q67 0 115.5 -48.5t48.5 -116.5t-48.5 -116t-115.5 -48q-69 0 -117.5 48t-48.5 116z" />
<glyph unicode="@" horiz-adv-x="2048" d="M90 520q0 167 52.5 318.5t154.5 275.5q148 181 356 274t463 93q169 0 317.5 -45.5t258.5 -128.5q135 -105 201.5 -239.5t66.5 -303.5q0 -165 -65.5 -304.5t-188.5 -238.5q-70 -56 -152.5 -85.5t-171.5 -29.5q-106 0 -159.5 42t-55.5 124q-55 -84 -127 -123.5t-170 -39.5 q-158 0 -240.5 86t-82.5 254q0 239 139.5 401t343.5 162q80 0 139 -33t97 -98l53 98h178l-147 -598q-3 -11 -5 -22.5t-2 -18.5q0 -35 24 -52.5t71 -17.5q39 0 81.5 20t79.5 56q86 80 130.5 187t44.5 235q0 240 -185.5 394.5t-478.5 154.5q-141 0 -262.5 -34t-220.5 -101 q-170 -114 -261.5 -285t-91.5 -375q0 -307 207 -490.5t553 -183.5q162 0 316.5 49t287.5 142l82 -117q-153 -115 -324.5 -173t-357.5 -58q-192 0 -353 48.5t-286 143.5q-155 121 -232 279t-77 358zM760 444q0 -92 40.5 -140t117.5 -48q83 0 151.5 63t93.5 164l54 217 q-13 81 -57.5 123.5t-117.5 42.5q-114 0 -198 -124t-84 -298z" />
<glyph unicode="A" horiz-adv-x="1053" d="M-16 55q0 7 3 19t9 26l471 1311q15 44 32.5 63t41.5 19q22 0 39 -19t32 -63l406 -1139q16 -45 22.5 -72t6.5 -50q0 -71 -50 -115.5t-129 -44.5q-56 0 -94.5 39t-71.5 135l-10 29q-25 73 -45 93.5t-57 20.5h-338q-36 0 -56 -19t-46 -95l-48 -132q-13 -35 -26 -49t-31 -14 q-28 0 -44.5 15.5t-16.5 41.5zM254 481q0 -27 17.5 -43t47.5 -16h197q31 0 48.5 16t17.5 43q0 8 -11 34q-5 12 -8 20l-76 210q-15 46 -31 64t-38 18t-38.5 -19t-31.5 -63l-76 -211q-2 -6 -7 -18q-11 -27 -11 -35z" />
<glyph unicode="B" horiz-adv-x="930" d="M86 356v772q0 184 96.5 274.5t292.5 90.5q191 0 290 -90t99 -264v-152q0 -93 -24.5 -150t-81.5 -100q57 -43 81.5 -100t24.5 -150v-131q0 -183 -97 -274.5t-292 -91.5t-292 91t-97 275zM426 358q0 -114 37.5 -161t124.5 -47q86 0 124 45.5t38 152.5v139q0 105 -42 149 t-143 44h-139v-322zM426 795h139q101 0 143 44t42 148v162q0 110 -38 154.5t-124 44.5t-124 -49t-38 -162v-342z" />
<glyph unicode="C" d="M74 356v772q0 186 95 275.5t292 89.5q192 0 284.5 -79t92.5 -243v-129q0 -123 -38.5 -176t-125.5 -53t-125.5 53t-38.5 176v107q0 110 -37.5 154.5t-124.5 44.5q-86 0 -124 -49t-38 -162v-777q0 -113 38 -161.5t124 -48.5q87 0 124.5 44t37.5 154v98q0 123 38 175.5 t126 52.5t126 -52.5t38 -175.5v-135q0 -164 -92 -242.5t-283 -78.5q-197 0 -293 90.5t-96 275.5z" />
<glyph unicode="D" horiz-adv-x="958" d="M86 0v1128q0 187 98.5 276t304.5 89q197 0 290 -76t93 -235v-989q0 -105 -41.5 -149t-142.5 -44h-602zM209 133h137q101 0 142.5 44t41.5 149v823q0 111 -36.5 155t-122.5 44t-124 -49t-38 -162v-1004z" />
<glyph unicode="E" horiz-adv-x="883" d="M86 193v1097q0 92 48.5 143.5t133.5 51.5h467q46 0 65 -14t19 -46q0 -31 -19.5 -45t-64.5 -14h-209q-57 0 -73.5 -16t-16.5 -74v-387q0 -58 16.5 -74t73.5 -16h209q46 0 65 -14t19 -46t-19 -45.5t-65 -13.5h-209q-57 0 -73.5 -16t-16.5 -74v-268q0 -106 42 -150.5 t143 -44.5h192q46 0 64 -14.5t18 -49.5q0 -34 -18 -48.5t-64 -14.5h-545q-85 0 -133.5 51t-48.5 142z" />
<glyph unicode="F" horiz-adv-x="797" d="M86 219v1071q0 92 48.5 143.5t133.5 51.5h459q45 0 63.5 -15t18.5 -51q0 -34 -18.5 -48.5t-63.5 -14.5h-106q-102 0 -143.5 -44t-41.5 -149v-284q0 -58 16.5 -74.5t73.5 -16.5h152q46 0 64 -12.5t18 -44.5t-18.5 -45.5t-63.5 -13.5h-152q-57 0 -73.5 -16t-16.5 -74v-363 q0 -125 -41 -177t-135 -52q-92 0 -133 53t-41 176z" />
<glyph unicode="G" horiz-adv-x="922" d="M74 356v772q0 184 96.5 274.5t292.5 90.5t292.5 -90t96.5 -275v-188q0 -45 -13 -63.5t-44 -18.5t-44.5 18.5t-13.5 63.5v209q0 110 -37.5 154.5t-124.5 44.5q-85 0 -122 -48.5t-37 -162.5v-797q0 -105 38 -154t119 -49q73 0 116.5 41.5t43.5 110.5q0 54 -19.5 88 t-86.5 74q-70 42 -90.5 77.5t-20.5 92.5q0 73 46.5 117t123.5 44q86 0 126 -51.5t40 -161.5v-213q0 -184 -97 -275t-292 -91t-292 91t-97 275z" />
<glyph unicode="H" horiz-adv-x="948" d="M86 219v1047q0 124 39.5 175.5t130.5 51.5t130.5 -52t39.5 -175v-332q0 -57 16 -73.5t74 -16.5h143q58 0 74.5 16.5t16.5 73.5v477q0 46 13 64t44 18q30 0 42.5 -17.5t12.5 -64.5v-1337q0 -48 -12.5 -66t-42.5 -18q-31 0 -44 19t-13 65v565q0 57 -16.5 73.5t-74.5 16.5 h-143q-58 0 -74 -16.5t-16 -73.5v-420q0 -124 -39.5 -176.5t-130.5 -52.5q-90 0 -130 52.5t-40 176.5z" />
<glyph unicode="I" horiz-adv-x="522" d="M86 219v1047q0 123 41 175t135 52t134 -51.5t40 -175.5v-1047q0 -123 -40.5 -176t-133.5 -53q-95 0 -135.5 52t-40.5 177z" />
<glyph unicode="J" d="M55 356v213q0 110 40.5 161.5t125.5 51.5q78 0 125 -44t47 -117q0 -56 -20.5 -91.5t-91.5 -78.5q-68 -40 -87.5 -74t-19.5 -88q0 -69 44.5 -110.5t117.5 -41.5q81 0 119.5 49t38.5 154v926q0 123 39.5 175t130.5 52t130.5 -51.5t39.5 -175.5v-910q0 -184 -97 -275 t-293 -91q-195 0 -292 91t-97 275z" />
<glyph unicode="K" horiz-adv-x="1024" d="M86 219v1047q0 124 39.5 175.5t130.5 51.5t130.5 -52t39.5 -175v-396q0 -47 10.5 -62t36.5 -15q41 0 80 110l184 520q12 35 25 48.5t33 13.5q27 0 44 -15.5t17 -42.5q0 -6 -3 -16.5t-9 -26.5l-96 -266l-1 -2q-18 -49 -18 -67q0 -8 12 -43q5 -15 9 -26l249 -708l1 -1 q30 -83 30 -121q0 -71 -50 -115.5t-128 -44.5q-57 0 -95 39t-71 135l-133 397l-1 2q-36 107 -79 107q-26 0 -36.5 -13.5t-10.5 -62.5v-375q0 -124 -39.5 -176.5t-130.5 -52.5q-90 0 -130 52.5t-40 176.5z" />
<glyph unicode="L" horiz-adv-x="797" d="M86 193v1073q0 122 40.5 174.5t133.5 52.5q95 0 135.5 -51.5t40.5 -175.5v-944q0 -106 42 -150.5t143 -44.5h106q46 0 64 -14.5t18 -49.5q0 -34 -18 -48.5t-64 -14.5h-459q-85 0 -133.5 51t-48.5 142z" />
<glyph unicode="M" horiz-adv-x="1395" d="M86 74v1192q0 124 37.5 175.5t124.5 51.5q73 0 113 -38.5t90 -188.5l176 -529q15 -47 28.5 -63.5t34.5 -16.5t34.5 16t31.5 64l188 529q5 12 13 35q68 192 188 192q88 0 126 -52t38 -175v-1047q0 -125 -38.5 -177t-125.5 -52t-125.5 52.5t-38.5 176.5v447 q0 50 -11.5 63.5t-39.5 13.5q-26 0 -43 -18.5t-41 -91.5l-195 -561q-16 -47 -30.5 -64.5t-34.5 -17.5q-18 0 -31 14t-33 68l-186 516q-2 5 -5 13q-35 95 -81 95q-29 0 -40 -13t-11 -62v-547q0 -46 -13.5 -65t-44.5 -19q-30 0 -42.5 18t-12.5 66z" />
<glyph unicode="N" horiz-adv-x="924" d="M86 74v1192q0 124 37.5 175.5t124.5 51.5q122 0 198 -210l7 -17l135 -369v-1q41 -110 86 -110q28 0 39.5 14t11.5 64v547q0 46 13 64t44 18t44.5 -18t13.5 -64v-1192q0 -124 -38.5 -176.5t-125.5 -52.5q-120 0 -194 204q-6 17 -9 25l-135 369q-26 69 -43.5 88.5 t-44.5 19.5q-29 0 -40 -13t-11 -62v-547q0 -46 -13.5 -65t-44.5 -19q-30 0 -42.5 18t-12.5 66z" />
<glyph unicode="O" d="M74 289v22v883q0 80 18 123t60 84q49 46 125.5 69t181.5 23q189 0 284 -91.5t95 -273.5v-772q0 -182 -95.5 -274t-283.5 -92q-103 0 -180 23.5t-127 70.5q-42 39 -60 82t-18 123zM401 348q0 -111 37 -154.5t123 -43.5t124 48.5t38 161.5v777q0 113 -38 162t-124 49 t-123 -44t-37 -155v-801z" />
<glyph unicode="P" horiz-adv-x="928" d="M78 219v909q0 183 97.5 274t291.5 91q198 0 293.5 -85t95.5 -261v-379q0 -187 -99.5 -265.5t-336.5 -80.5v-203q0 -124 -39.5 -176.5t-130.5 -52.5t-131.5 53t-40.5 176zM193 797q0 -114 36.5 -161.5t122.5 -47.5q87 0 124.5 43.5t37.5 152.5v328q0 123 -37.5 174 t-124.5 51q-86 0 -122.5 -46.5t-36.5 -166.5v-327z" />
<glyph unicode="Q" d="M74 289v22v883q0 80 18 123t60 84q49 46 125.5 69t181.5 23q189 0 284 -91.5t95 -273.5v-772q0 -112 -26 -174.5t-87 -115.5l53 -58q16 -16 23.5 -30t7.5 -29q0 -22 -19 -41t-40 -19q-16 0 -31 9t-29 26l-72 90q-38 -12 -78 -18t-81 -6q-102 0 -179 23.5t-128 70.5 q-42 39 -60 82t-18 123zM401 348q0 -111 37 -154.5t123 -43.5t124 48.5t38 161.5v777q0 113 -38 162t-124 49t-123 -44t-37 -155v-801z" />
<glyph unicode="R" horiz-adv-x="946" d="M84 219v909q0 184 97 274.5t294 90.5t295 -91t98 -274v-141q0 -93 -24.5 -150t-81.5 -100q60 -31 88.5 -91.5t28.5 -158.5v-413q0 -46 -13.5 -65t-44.5 -19q-30 0 -43.5 19t-13.5 65v413q0 103 -43.5 148t-145.5 45h-147v-461q0 -123 -41 -176t-133 -53 q-91 0 -130.5 52.5t-39.5 176.5zM428 795h139q103 0 145 43.5t42 148.5v162q0 109 -38.5 154t-125.5 45t-124.5 -48.5t-37.5 -162.5v-342z" />
<glyph unicode="S" horiz-adv-x="930" d="M76 356v33q0 99 39.5 140.5t130.5 41.5q92 0 132 -41.5t40 -140.5v-49q0 -105 38 -154t119 -49q73 0 116.5 41.5t43.5 110.5q0 56 -25 97.5t-79 74.5l-402 239q-87 53 -120 106t-33 185v166q0 94 18.5 143t61.5 91q51 49 130.5 75.5t178.5 26.5q196 0 292.5 -90.5 t96.5 -274.5v-41q0 -98 -39.5 -140t-130.5 -42q-92 0 -132 42t-40 140v58q0 105 -38 154t-120 49q-72 0 -115.5 -42.5t-43.5 -111.5q0 -55 25.5 -96t80.5 -74l401 -242q87 -51 119.5 -103.5t32.5 -154.5v-172q0 -187 -94.5 -274.5t-294.5 -87.5q-195 0 -292 91t-97 275z" />
<glyph unicode="T" horiz-adv-x="938" d="M-39 1419q0 36 18.5 51t63.5 15h842q45 0 63.5 -15t18.5 -51q0 -35 -18.5 -49t-63.5 -14h-162q-57 0 -73.5 -17t-16.5 -73l2 -1047q0 -2 -1 -5t-1 -5q0 -122 -37.5 -170.5t-126.5 -48.5q-92 0 -133 53t-41 176v1047q0 58 -16.5 74t-73.5 16h-162q-46 0 -64 14t-18 49z " />
<glyph unicode="U" horiz-adv-x="930" d="M74 311v955q0 124 39 175.5t131 51.5q91 0 131.5 -52.5t40.5 -174.5v-918q0 -111 36.5 -154.5t122.5 -43.5q87 0 124.5 48.5t37.5 161.5v1051q0 46 13.5 64t44.5 18t44 -18t13 -64v-1055q0 -185 -98.5 -275.5t-298.5 -90.5q-194 0 -287.5 79t-93.5 242z" />
<glyph unicode="V" horiz-adv-x="1024" d="M4 1333q0 71 47.5 116.5t120.5 45.5q59 0 95.5 -35.5t72.5 -138.5l98 -272q45 -128 80.5 -164.5t97.5 -36.5q69 0 114.5 41.5t45.5 105.5q0 31 -24 104l-2 6l-39 116q-15 42 -20 66t-5 44q0 74 43.5 119t114.5 45q77 0 122.5 -47t45.5 -127q0 -26 -6 -55t-25 -82 l-399 -1112q-16 -46 -32.5 -64t-39.5 -18t-41 19.5t-33 62.5l-403 1140q-16 45 -22.5 72t-6.5 49z" />
<glyph unicode="W" horiz-adv-x="1507" d="M4 1333q0 71 48 116.5t120 45.5q59 0 95.5 -34t68.5 -126l227 -653q12 -37 26.5 -52.5t35.5 -15.5q28 0 45.5 15t17.5 41q0 8 -3 21.5t-9 31.5l-170 485q-17 46 -24 74.5t-7 50.5q0 71 47.5 116.5t120.5 45.5q58 0 95 -34t75 -140l98 -274l3 -8q73 -208 186 -208 q71 0 116.5 44t45.5 114q0 22 -5.5 45.5t-21.5 67.5l-41 119q-14 39 -19.5 64t-5.5 46q0 74 43.5 119t114.5 45q77 0 122.5 -47t45.5 -127q0 -26 -6 -55t-25 -82l-399 -1112q-15 -44 -32 -63t-40 -19t-41.5 20.5t-31.5 61.5l-111 329q-15 45 -31 63.5t-37 18.5 q-20 0 -34.5 -17.5t-30.5 -64.5l-111 -329q-14 -42 -31.5 -62t-39.5 -20q-24 0 -42 20.5t-32 61.5l-387 1140q-17 49 -23 75t-6 46z" />
<glyph unicode="X" horiz-adv-x="825" d="M-6 45q0 5 3 17.5t9 27.5l201 563q9 27 12.5 43t3.5 27q0 8 -4.5 24.5t-13.5 42.5l-152 422q-18 51 -23 75.5t-5 45.5q0 72 49 117t127 45q58 0 98.5 -42t69.5 -132l47 -154q13 -42 29.5 -61t39.5 -19q22 0 37 17.5t31 62.5l92 265q13 35 26 49t31 14q28 0 44 -15.5 t16 -41.5q0 -5 -3 -15.5t-9 -27.5l-154 -434q-12 -36 -15 -49.5t-3 -22.5q0 -7 14 -49q4 -12 6 -19l193 -549q16 -48 22 -74.5t6 -47.5q0 -71 -50 -115.5t-128 -44.5q-58 0 -97.5 41.5t-68.5 132.5l-88 276q-14 45 -29.5 63.5t-38.5 18.5q-21 0 -37 -18t-32 -64l-139 -389 q-12 -34 -25 -47.5t-33 -13.5q-28 0 -43.5 14.5t-15.5 40.5z" />
<glyph unicode="Y" horiz-adv-x="834" d="M10 1335q0 71 49.5 114.5t128.5 43.5q58 0 95 -37t71 -135l103 -295q18 -50 31.5 -66t33.5 -16t34 16t32 66l139 397q12 35 25 48.5t32 13.5q28 0 45 -15.5t17 -42.5q0 -4 -2.5 -13t-9.5 -29l-236 -662q-12 -33 -18.5 -63t-6.5 -56q0 -8 1 -18t1 -11v-356 q0 -124 -39 -176.5t-130 -52.5t-130.5 52.5t-39.5 176.5v356q0 1 1 11t1 18q0 26 -6.5 56t-18.5 63l-174 489q-16 46 -22.5 74t-6.5 49z" />
<glyph unicode="Z" horiz-adv-x="825" d="M16 180q0 23 6 51t17 58l336 909l3 10q28 70 28 101q0 30 -25.5 43.5t-85.5 13.5h-135q-45 0 -64.5 14t-19.5 45q0 32 19 46t65 14h534q61 0 86 -13.5t25 -44.5q0 -29 -25 -92q-5 -13 -8 -20l-377 -1019l-3 -8q-27 -71 -27 -104q0 -30 24 -43.5t84 -13.5h295 q46 0 65 -14.5t19 -49.5q0 -34 -18.5 -48.5t-65.5 -14.5h-543q-93 0 -151 50t-58 130z" />
<glyph unicode="[" horiz-adv-x="446" d="M86 193v1097q0 93 37 144t104 51h154q43 0 63.5 -13.5t20.5 -39.5q0 -27 -20.5 -39.5t-63.5 -12.5h-111q-48 0 -62.5 -16.5t-14.5 -67.5v-1108q0 -50 14.5 -67t62.5 -17h111q43 0 63.5 -13t20.5 -40q0 -26 -20.5 -38.5t-63.5 -12.5h-154q-67 0 -104 50t-37 143z" />
<glyph unicode="\" horiz-adv-x="707" d="M0 1438q0 22 20 38.5t46 16.5q18 0 31 -10.5t22 -32.5l629 -1552q4 -10 6 -18t2 -15q0 -23 -19.5 -39t-46.5 -16q-16 0 -30.5 11t-22.5 29l-627 1553l-1 3q-9 24 -9 32z" />
<glyph unicode="]" horiz-adv-x="446" d="M-18 51q0 27 19.5 40t61.5 13h111q50 0 65 17t15 67v1108q0 50 -15 67t-65 17h-111q-43 0 -62 12.5t-19 39.5t19.5 40t61.5 13h154q68 0 105.5 -51t37.5 -144v-1097q0 -93 -37.5 -143t-105.5 -50h-154q-43 0 -62 12t-19 39z" />
<glyph unicode="^" horiz-adv-x="2048" d="M416 899l481 561h252l481 -561h-235l-371 371l-373 -371h-235z" />
<glyph unicode="_" horiz-adv-x="1024" d="M0 -279h1024v-204h-1024v204z" />
<glyph unicode="`" horiz-adv-x="1024" d="M285 1427q0 30 26 52t60 22t70 -39l1 -1l166 -197q11 -13 17 -27.5t6 -28.5q0 -29 -20 -50t-48 -21q-25 0 -61 33q-6 5 -9 8l-174 172q-15 15 -24.5 36.5t-9.5 40.5z" />
<glyph unicode="a" horiz-adv-x="879" d="M43 303q0 124 77 202.5t197 78.5h211q84 0 135.5 43t51.5 112q0 80 -48 132.5t-120 52.5q-62 0 -100 -30.5t-72 -115.5q-32 -79 -71 -108t-103 -29q-63 0 -105.5 48.5t-42.5 121.5q0 102 111 177t272 75q194 0 291.5 -92t97.5 -275v-340q0 -183 -97 -274.5t-292 -91.5 q-185 0 -289 83t-104 230zM164 301q0 -68 44.5 -111t113.5 -43q75 0 118 44t43 122v156h-145q-78 0 -126 -46t-48 -122z" />
<glyph unicode="b" horiz-adv-x="901" d="M61 356v910q0 123 40 175t130 52q93 0 132.5 -52t39.5 -175v-203h48q94 0 177 -27.5t132 -74.5q43 -42 61.5 -92t18.5 -152v-381q0 -104 -18.5 -154.5t-61.5 -91.5q-48 -46 -131 -73t-178 -27q-195 0 -292.5 91.5t-97.5 274.5zM176 358q0 -119 37 -166t123 -47 q87 0 124.5 51.5t37.5 174.5v327q0 111 -37.5 155t-124.5 44q-86 0 -123 -47.5t-37 -161.5v-330z" />
<glyph unicode="c" horiz-adv-x="834" d="M47 356v340q0 184 97.5 275.5t291.5 91.5q165 0 274 -74.5t109 -185.5q0 -72 -47.5 -116t-124.5 -44q-57 0 -95 25t-60 77q-4 9 -10 23q-58 139 -160 139q-86 0 -123 -47t-37 -168v-334q0 -119 36.5 -166t123.5 -47q102 0 160 140q6 14 10 23q22 51 60 76.5t95 25.5 q77 0 124.5 -44t47.5 -116q0 -111 -109 -185.5t-274 -74.5q-194 0 -291.5 91.5t-97.5 274.5z" />
<glyph unicode="d" horiz-adv-x="901" d="M61 336v381q0 186 99.5 264.5t336.5 81.5l1 203q0 124 39 175.5t131 51.5q91 0 131.5 -52.5t40.5 -174.5v-910q0 -183 -97.5 -274.5t-291.5 -91.5q-96 0 -179 27t-131 73q-43 41 -61.5 91.5t-18.5 154.5zM403 371q0 -124 37 -175t123 -51q87 0 124.5 47.5t37.5 165.5v330 q0 113 -37.5 161t-124.5 48q-86 0 -123 -43.5t-37 -155.5v-327z" />
<glyph unicode="e" horiz-adv-x="872" d="M47 356v340q0 184 97.5 275.5t291.5 91.5q186 0 289.5 -83t103.5 -230q0 -125 -77 -203t-197 -78h-211q-84 0 -135 -43t-51 -113q0 -80 48 -133t120 -53q61 0 99 30.5t73 116.5q31 78 70 107t104 29q62 0 104.5 -48t42.5 -120q0 -103 -111.5 -177.5t-273.5 -74.5 q-193 0 -290 91.5t-97 274.5zM389 584h146q77 0 124.5 46t47.5 122q0 68 -43.5 110.5t-112.5 42.5q-76 0 -119 -44t-43 -122v-155z" />
<glyph unicode="f" horiz-adv-x="563" d="M61 219v961q0 138 113 225.5t291 87.5q173 0 283 -72t110 -180q0 -72 -48.5 -118t-125.5 -46q-62 0 -102 31.5t-64 99.5q-25 73 -67.5 106.5t-110.5 33.5q-65 0 -112.5 -49t-47.5 -119q0 -84 46.5 -122t150.5 -38h112q46 0 65 -14.5t19 -47.5q0 -31 -19.5 -46t-64.5 -15 h-86v-678q0 -123 -40.5 -176t-131.5 -53t-130.5 52.5t-39.5 176.5z" />
<glyph unicode="g" horiz-adv-x="885" d="M49 -86q0 59 34 100.5t116 79.5q-82 43 -116 86.5t-34 104.5q0 58 34 101.5t103 72.5q-66 32 -100.5 79t-36.5 108v116q0 132 96 211.5t258 79.5h418q45 0 63.5 -15t18.5 -49q0 -35 -19 -50t-63 -15h-41q36 -42 53 -86.5t17 -96.5q0 -111 -62.5 -180.5t-185.5 -93.5 q-39 -8 -103 -11q-89 -4 -89 -44q0 -22 17 -41.5t56 -40.5l201 -115q73 -41 114.5 -110.5t41.5 -151.5q0 -140 -108.5 -222.5t-293.5 -82.5q-173 0 -281 75t-108 191zM406 745q0 -67 48 -115t115 -48q68 0 115 47.5t47 115.5q0 67 -47.5 114.5t-114.5 47.5q-68 0 -115.5 -47 t-47.5 -115zM414 -45q0 -65 45 -109.5t110 -44.5t110.5 45t45.5 109q0 65 -45.5 111.5t-110.5 46.5q-64 0 -109.5 -46.5t-45.5 -111.5z" />
<glyph unicode="h" d="M61 219v1047q0 123 40 175t130 52q93 0 132.5 -52t39.5 -175v-203h58q93 0 176 -27.5t133 -74.5q43 -41 60.5 -89.5t17.5 -154.5v-498q0 -124 -39.5 -176.5t-130.5 -52.5t-130.5 52.5t-39.5 176.5v436q0 144 -36.5 198t-123.5 54q-71 0 -115.5 -46.5t-44.5 -121.5 q0 -87 102 -144q36 -19 54 -32q32 -22 45.5 -61t13.5 -121v-162q0 -124 -40 -176.5t-132 -52.5q-90 0 -130 52.5t-40 176.5z" />
<glyph unicode="i" horiz-adv-x="465" d="M61 219v615q0 124 39.5 176.5t130.5 52.5t131.5 -53t40.5 -176v-615q0 -124 -40 -176.5t-132 -52.5q-90 0 -130 52.5t-40 176.5zM76 1337q0 65 46.5 110.5t110.5 45.5q65 0 110.5 -45.5t45.5 -110.5q0 -64 -45.5 -109.5t-110.5 -45.5t-111 45.5t-46 109.5z" />
<glyph unicode="j" horiz-adv-x="469" d="M-264 -201q0 27 17.5 45.5t43.5 18.5q25 0 70.5 -11.5t69.5 -11.5q69 0 99 48.5t30 166.5v779q0 123 40 176t132 53q90 0 130 -53t40 -176v-826q0 -86 -17.5 -134.5t-58.5 -88.5q-55 -51 -139.5 -80t-182.5 -29q-115 0 -194.5 36t-79.5 87zM82 1337q0 65 45.5 110.5 t110.5 45.5q64 0 109.5 -45.5t45.5 -110.5q0 -64 -45.5 -109.5t-109.5 -45.5q-66 0 -111 45t-45 110z" />
<glyph unicode="k" horiz-adv-x="834" d="M61 74v1192q0 123 40 175t130 52q93 0 132.5 -52t39.5 -175v-265q0 -58 12.5 -80t41.5 -22q8 0 22 5.5t28 14.5l163 97l2 1q35 21 57 21q19 0 34 -19t15 -40q0 -14 -9 -26t-42 -33l-158 -103l-8 -5q-49 -31 -49 -48q0 -8 6 -23.5t17 -33.5l235 -410q31 -54 42 -86.5 t11 -63.5q0 -61 -53 -108t-121 -47q-48 0 -86 30.5t-84 112.5l-151 272q-2 4 -6 10q-42 72 -80 72q-32 0 -46 -22.5t-14 -79.5v-313q0 -45 -14 -64.5t-45 -19.5q-33 0 -47.5 19t-14.5 65z" />
<glyph unicode="l" horiz-adv-x="465" d="M61 219v1047q0 124 39.5 175.5t130.5 51.5q92 0 132 -52.5t40 -174.5v-1047q0 -124 -40 -176.5t-132 -52.5q-90 0 -130 52.5t-40 176.5z" />
<glyph unicode="m" horiz-adv-x="1356" d="M61 219v467q0 102 19 156.5t61 101.5q54 60 133 89.5t185 29.5q67 0 121 -12t98 -37q44 25 97.5 37t121.5 12q93 0 164 -22.5t125 -67.5q58 -51 83 -113.5t25 -200.5v-12v-428q0 -124 -39.5 -176.5t-130.5 -52.5t-131.5 52.5t-40.5 176.5v162q0 76 11.5 113.5t37.5 60.5 q19 16 63 40q103 55 103 144q0 75 -44 121.5t-115 46.5q-87 0 -123.5 -54t-36.5 -198v-436q0 -124 -40 -176.5t-130 -52.5q-91 0 -130.5 52.5t-39.5 176.5v428q0 151 -36.5 205.5t-123.5 54.5q-71 0 -115.5 -46.5t-44.5 -121.5q0 -87 102 -144q36 -19 54 -32 q32 -22 45.5 -61t13.5 -121v-162q0 -124 -40 -176.5t-132 -52.5q-90 0 -130 52.5t-40 176.5z" />
<glyph unicode="n" d="M61 219v428v39q0 102 19 156.5t61 101.5q54 60 133 89.5t185 29.5q88 0 158 -23t122 -69q59 -51 84 -114.5t25 -209.5v-428q0 -124 -39.5 -176.5t-130.5 -52.5t-130.5 52.5t-39.5 176.5v436q0 144 -36.5 198t-123.5 54q-71 0 -115.5 -46.5t-44.5 -121.5q0 -87 102 -144 q36 -19 54 -32q32 -22 45.5 -61t13.5 -121v-162q0 -124 -40 -176.5t-132 -52.5q-90 0 -130 52.5t-40 176.5z" />
<glyph unicode="o" horiz-adv-x="872" d="M47 336v381q0 102 18 152t62 92q49 47 131.5 74.5t177.5 27.5q195 0 292 -91.5t97 -275.5v-340q0 -183 -97 -274.5t-292 -91.5q-96 0 -178.5 27t-130.5 73q-44 41 -62 91.5t-18 154.5zM389 354q0 -110 37.5 -154t124.5 -44q86 0 123 47.5t37 161.5v327q0 121 -37 168 t-123 47q-87 0 -124.5 -52t-37.5 -175v-326z" />
<glyph unicode="p" horiz-adv-x="901" d="M61 -94v790q0 184 97.5 275.5t292.5 91.5q94 0 177 -27.5t132 -74.5q43 -42 61.5 -92t18.5 -152v-381q0 -187 -99.5 -265t-336.5 -81l-1 -84q0 -123 -39.5 -175.5t-132.5 -52.5q-90 0 -130 52t-40 176zM176 365q0 -114 37 -161.5t123 -47.5q87 0 124.5 44t37.5 154v326 q0 123 -38 175t-124 52t-123 -47t-37 -168v-327z" />
<glyph unicode="q" horiz-adv-x="901" d="M61 336v381q0 102 18.5 152t61.5 92q49 47 132 74.5t178 27.5q194 0 291.5 -91.5t97.5 -275.5v-790q0 -122 -40.5 -175t-131.5 -53q-92 0 -131 52t-39 176v84h-47q-96 0 -179 27t-131 73q-43 41 -61.5 91.5t-18.5 154.5zM403 354q0 -111 37 -154.5t123 -43.5 q87 0 124.5 48t37.5 161v327q0 120 -37.5 167.5t-124.5 47.5q-86 0 -123 -51.5t-37 -175.5v-326z" />
<glyph unicode="r" horiz-adv-x="872" d="M61 219v490q0 178 94.5 266t286.5 88t286.5 -88t94.5 -266v-209q0 -107 -38.5 -156t-122.5 -49q-76 0 -122 43.5t-46 114.5q0 53 19.5 86.5t90.5 76.5q66 41 88.5 75t22.5 83q0 65 -44 106.5t-114 41.5q-80 0 -118 -47.5t-38 -149.5v-506q0 -124 -39.5 -176.5 t-130.5 -52.5q-90 0 -130 52.5t-40 176.5z" />
<glyph unicode="s" horiz-adv-x="872" d="M45 252q0 77 50 122.5t134 45.5q45 0 79.5 -20.5t43.5 -48.5l5 -16q64 -198 190 -198q63 0 109 48.5t46 117.5q0 86 -53 127t-164 41h-131q-148 0 -228.5 72.5t-80.5 206.5q0 140 108.5 226.5t282.5 86.5q170 0 276.5 -72t106.5 -184q0 -73 -51 -117.5t-135 -44.5 q-59 0 -92.5 29.5t-51.5 95.5q-18 71 -60.5 108t-104.5 37q-70 0 -116 -47t-46 -118q0 -87 51 -126.5t164 -39.5h151q140 0 219.5 -75t79.5 -206q0 -142 -110 -227.5t-293 -85.5q-166 0 -272.5 73.5t-106.5 188.5z" />
<glyph unicode="t" horiz-adv-x="483" d="M-35 958q0 33 19.5 47.5t64.5 14.5h58q103 2 142.5 40.5t39.5 135.5v25q0 39 13.5 56t43.5 17q34 0 50 -17.5t16 -55.5v-201h14q44 0 64 -15t20 -47t-19.5 -46.5t-64.5 -14.5h-14v-678q0 -124 -39.5 -176.5t-130.5 -52.5t-130.5 52.5t-39.5 176.5v678h-23q-44 0 -64 15 t-20 46z" />
<glyph unicode="u" d="M61 377v29v428q0 124 39.5 176.5t130.5 52.5t131.5 -53t40.5 -176v-437q0 -143 37 -197.5t123 -54.5q71 0 115.5 46.5t44.5 121.5q0 86 -101 141q-37 20 -57 33q-31 22 -44 60.5t-13 124.5v162q0 124 39.5 176.5t130.5 52.5q90 0 130 -53t40 -176v-428v-46 q0 -79 -12.5 -126.5t-40.5 -90.5q-51 -77 -136.5 -115t-205.5 -38q-102 0 -180.5 30t-131.5 89q-42 49 -61 105.5t-19 162.5z" />
<glyph unicode="v" horiz-adv-x="1014" d="M4 901q0 70 47.5 115t120.5 45q90 0 171 -158l3 -6l96 -190q4 -7 11 -21q77 -154 165 -154q59 0 97.5 37t38.5 93q0 29 -36 108.5t-36 132.5q0 72 44 115t118 43q67 0 112 -47.5t45 -118.5q0 -31 -10 -64t-33 -71l-387 -689q-4 -7 -11 -20q-34 -61 -73 -61t-72 64 q-6 11 -9 17l-373 709q-14 25 -21.5 56.5t-7.5 64.5z" />
<glyph unicode="w" horiz-adv-x="1526" d="M4 901q0 72 48 118t122 46q89 0 171 -154l5 -10l205 -383q19 -34 35.5 -48.5t36.5 -14.5q25 0 42 17t17 42q0 15 -14 41l-6 12l-111 213q-15 29 -23 60t-8 61q0 72 49 118t125 46q91 0 172 -159l2 -4l97 -191q6 -12 17 -35q70 -137 151 -137q55 0 92 35.5t37 89.5 q0 28 -36 107t-36 132q0 73 44.5 117.5t117.5 44.5q67 0 112 -49.5t45 -120.5q0 -31 -10 -64t-33 -71l-387 -689q-2 -4 -7 -13q-36 -68 -77 -68t-81 77l-2 4l-93 173l-4 8q-37 72 -76 72q-34 0 -68 -63q-6 -11 -10 -18l-94 -172q-2 -4 -7 -13q-36 -68 -77 -68q-39 0 -72 64 q-6 11 -9 17l-373 709q-14 27 -21.5 59t-7.5 62z" />
<glyph unicode="x" horiz-adv-x="797" d="M18 909q0 62 53.5 109t121.5 47q50 0 91 -34.5t78 -108.5l76 -156q15 -29 26.5 -39t27.5 -10q18 0 32 11t29 38l143 246q17 30 31 41.5t31 11.5q22 0 41.5 -19t19.5 -42q0 -18 -16 -46q-3 -5 -4 -7l-205 -355q-6 -11 -9 -25t-3 -34q0 -14 4 -29t12 -29l99 -183 q2 -4 9 -17q44 -83 44 -132q0 -61 -53.5 -108t-121.5 -47q-52 0 -91.5 33t-77.5 110l-37 72q-16 31 -26.5 40t-27.5 9q-16 0 -28 -9.5t-29 -39.5l-92 -166q-16 -29 -30 -40t-32 -11q-23 0 -43 18t-20 41q0 16 18 46q3 5 5 8l155 274q7 11 10.5 26t3.5 33q0 12 -4 27t-12 31 l-145 265l-2 4q-52 92 -52 146z" />
<glyph unicode="y" horiz-adv-x="930" d="M-27 -154q0 78 43.5 123.5t125.5 53.5q14 1 44 3q70 3 99 21q31 20 51 56.5t20 72.5q0 22 -7.5 46.5t-22.5 53.5l-262 483l-2 3q-52 93 -52 147q0 62 54 109t122 47q50 0 87 -30t81 -113l160 -297l2 -4q26 -46 51 -46q19 0 32.5 11t29.5 39l213 387q16 28 30.5 40.5 t30.5 12.5q23 0 43.5 -19t20.5 -42q0 -15 -15 -42q-4 -7 -6 -12l-629 -1134q-45 -81 -85 -110.5t-97 -29.5q-70 0 -116 48t-46 122z" />
<glyph unicode="z" horiz-adv-x="825" d="M10 176q0 30 7.5 60t21.5 53l280 487q23 37 34.5 66.5t11.5 48.5q0 27 -22.5 40t-68.5 13h-51q-44 0 -63 14t-19 46t18.5 45.5t63.5 13.5h471q62 0 85.5 -10.5t23.5 -34.5q0 -17 -8 -40t-23 -50l-377 -672q-16 -27 -23 -47.5t-7 -36.5q0 -24 24.5 -34.5t83.5 -10.5h246 q46 0 65 -14.5t19 -49.5q0 -34 -18.5 -48.5t-65.5 -14.5h-520q-83 0 -136 49.5t-53 126.5z" />
<glyph unicode="{" horiz-adv-x="1024" d="M158 426v209q7 0 21 -1t20 -1q120 0 171.5 58t51.5 196v250q0 143 23.5 201t80.5 92q47 25 114 37t167 12q12 0 37 -1t39 -1v-209q-9 0 -25 1t-22 1q-101 0 -136.5 -38.5t-35.5 -162.5v-240q0 -148 -45 -210t-162 -89q117 -27 162 -88t45 -209v-241q0 -123 35 -161 t137 -38q6 0 22 1t25 1v-209q-14 0 -39 -1t-37 -1q-100 0 -167 12t-114 37q-57 34 -80.5 91.5t-23.5 199.5v252q0 137 -51 194.5t-172 57.5q-6 0 -20 -1t-21 -1z" />
<glyph unicode="|" horiz-adv-x="1024" d="M410 -483v2048h206v-2048h-206z" />
<glyph unicode="}" horiz-adv-x="1024" d="M143 -205q9 0 25 -1t22 -1q101 0 136.5 38.5t35.5 160.5v239q0 150 45 211.5t162 87.5q-117 27 -162 89t-45 210v242q0 122 -35.5 160.5t-136.5 38.5q-6 0 -22 -1t-25 -1v209h68q110 0 177 -12t112 -38q57 -32 80.5 -91.5t23.5 -198.5v-252q0 -137 51 -194.5t172 -57.5 q6 0 20 1t21 1v-209h-37q-125 0 -176 -56t-51 -194v-252q0 -143 -23.5 -201t-80.5 -90q-47 -25 -114 -37t-167 -12q-12 0 -37 1t-39 1v209z" />
<glyph unicode="~" horiz-adv-x="1706" d="M178 418v221q107 72 204 107.5t183 35.5q117 0 291 -58l4 -1q18 -6 55 -19q155 -55 240 -55t175 37t200 117v-221q-104 -71 -196.5 -104.5t-182.5 -33.5q-46 0 -92 8t-92 23q-24 8 -71 25q-219 75 -333 75q-85 0 -177.5 -37.5t-207.5 -119.5z" />
<glyph unicode="&#xa0;" />
<glyph unicode="&#xa1;" horiz-adv-x="483" d="M76 180q0 22 6 73q2 10 2 13l100 692q6 36 21.5 56t36.5 20q20 0 34.5 -19.5t20.5 -56.5l102 -691q3 -25 4.5 -46.5t2.5 -40.5q0 -90 -43.5 -140t-120.5 -50q-78 0 -122 50.5t-44 139.5zM80 1331q0 68 47 115t115 47q67 0 114 -47t47 -115q0 -66 -47.5 -114t-113.5 -48 t-114 48t-48 114z" />
<glyph unicode="&#xa2;" d="M76 356v340q0 166 72.5 250t238.5 113v43q0 44 15 64t47 20q33 0 47 -19t14 -65v-43q154 -12 245 -82t91 -174q0 -72 -46.5 -116t-123.5 -44q-57 0 -95 25t-61 78q-3 7 -9 22q-58 139 -161 139q-86 0 -123 -47t-37 -168v-334q0 -119 37 -166t123 -47q103 0 161 140 q6 14 9 22q23 52 61 77.5t95 25.5q77 0 123.5 -44t46.5 -116q0 -106 -90 -175t-246 -81v-43q0 -44 -15 -64t-46 -20q-34 0 -48 19t-14 65v43q-166 28 -238.5 112t-72.5 250z" />
<glyph unicode="&#xa3;" d="M0 719q0 31 17 46t51 15h26q-14 57 -21 100t-7 66v191q0 182 96.5 269t300.5 87q95 0 173 -23.5t128 -66.5q43 -38 61.5 -79.5t18.5 -119.5v-33v-75q0 -97 -39.5 -137.5t-130.5 -40.5q-92 0 -131 40t-39 138v57q0 103 -38 150t-120 47q-73 0 -117.5 -40.5t-44.5 -107.5 q0 -54 23 -91t84 -77l61 -41q31 -20 47.5 -46.5t30.5 -84.5l21 -82h170q44 0 62.5 -13.5t18.5 -45.5q0 -34 -18 -48t-63 -14h-136q7 -38 10 -72t3 -63q0 -75 -56 -162.5t-198 -228.5h98q133 0 173 41t40 158v63q0 96 37.5 139.5t120.5 43.5t121 -43.5t38 -139.5v-104 q0 -158 -87 -224.5t-302 -66.5h-333q-60 0 -87.5 18t-27.5 56q0 18 8.5 37t24.5 34q12 14 35 38q96 100 96 161q0 45 -19 129.5t-53 185.5h-43q-45 0 -64.5 14t-19.5 46z" />
<glyph unicode="&#xa4;" d="M-29 571q0 5 2.5 12t6.5 15l12 29q5 12 14.5 17t32.5 5h35v185h-80q-13 0 -18 3.5t-5 12.5q0 4 2.5 11.5t6.5 15.5l12 28q5 13 14.5 18t32.5 5h35v200q0 183 94 274t283 91q200 0 293.5 -77.5t93.5 -244.5v-45q0 -122 -38.5 -174.5t-125.5 -52.5t-125.5 52.5t-38.5 174.5 v23q0 109 -38 154t-124 45q-87 0 -124.5 -48.5t-37.5 -162.5v-209h258q14 0 18.5 -3t4.5 -12q0 -7 -1.5 -13.5t-4.5 -12.5l-14 -28q-6 -14 -15.5 -19.5t-30.5 -5.5h-215v-185h164q13 0 18 -4t5 -12q0 -4 -2.5 -10.5t-5.5 -14.5l-13 -29q-5 -12 -16 -18t-31 -6h-119v-195 q0 -114 37.5 -162t124.5 -48q86 0 124 44.5t38 153.5v27q0 122 38.5 174.5t125.5 52.5t125.5 -52.5t38.5 -174.5v-64q0 -166 -93.5 -243.5t-293.5 -77.5q-188 0 -282.5 92t-94.5 274v199h-80q-12 0 -17 3.5t-6 12.5z" />
<glyph unicode="&#xa5;" d="M37 530q0 26 14.5 37t50.5 11h170q1 4 1.5 11t0.5 19q0 29 -5.5 56t-18.5 59l-21 57h-127q-36 0 -50.5 11t-14.5 36q0 27 15 38.5t50 11.5h95l-121 335q-17 49 -23 75.5t-6 47.5q0 71 49.5 114.5t128.5 43.5q57 0 94.5 -37t71.5 -135l103 -295q17 -50 31 -66t34 -16 q19 0 32 14.5t32 67.5l141 397q12 35 25 48.5t32 13.5q28 0 45 -15.5t17 -42.5q0 -4 -3 -15t-10 -28l-180 -507h98q38 0 53 -11t15 -37t-15.5 -37.5t-52.5 -11.5h-133l-20 -57q-1 -2 -2 -6q-23 -67 -23 -113q0 -4 1 -12.5t1 -13.5h176q38 0 53 -11t15 -37q0 -25 -15 -36 t-53 -11h-176v-264q0 -124 -39.5 -176.5t-130.5 -52.5q-90 0 -130 52.5t-40 176.5v264h-170q-36 0 -50.5 11t-14.5 36z" />
<glyph unicode="&#xa6;" horiz-adv-x="1024" d="M410 -350v758h206v-758h-206zM410 674v758h206v-758h-206z" />
<glyph unicode="&#xa7;" horiz-adv-x="901" d="M33 537v161q0 67 15.5 113t47.5 72q-12 33 -18 59.5t-6 44.5v197q0 139 106 224t283 85q172 0 270 -77.5t98 -213.5q0 -84 -42 -129t-121 -45q-69 0 -105.5 38t-42.5 116q-8 98 -43 132t-110 34q-80 0 -120 -31.5t-40 -93.5q0 -41 23 -71t94 -71l366 -213 q101 -58 140.5 -121.5t39.5 -164.5v-166q0 -76 -18 -124t-57 -79q11 -30 17.5 -58t6.5 -49v-157q0 -146 -110 -233t-297 -87q-170 0 -270.5 81.5t-100.5 219.5q0 87 43.5 133t124.5 46q69 0 104.5 -36.5t46.5 -121.5q14 -104 52.5 -144t115.5 -40q82 0 123 32.5t41 98.5 q0 46 -22 77.5t-97 75.5l-352 205q-106 61 -146 122.5t-40 158.5zM147 725q0 -44 28.5 -79.5t94.5 -74.5l285 -165q51 -29 88.5 -54t73.5 -53q22 23 33.5 49t11.5 55q0 44 -27.5 78t-95.5 74l-285 166q-50 29 -88 54t-73 52q-23 -23 -34.5 -48t-11.5 -54z" />
<glyph unicode="&#xa8;" horiz-adv-x="1024" d="M297 1260q0 53 23 82.5t65 29.5q44 0 66 -28.5t22 -83.5q0 -54 -22.5 -82.5t-65.5 -28.5q-41 0 -64.5 29.5t-23.5 81.5zM551 1260q0 52 24 82t66 30q43 0 64.5 -28t21.5 -84q0 -55 -22 -83t-64 -28q-41 0 -65.5 30t-24.5 81z" />
<glyph unicode="&#xa9;" horiz-adv-x="1706" d="M111 733q0 149 56 284.5t163 244.5q105 106 238 161.5t284 55.5q152 0 287.5 -56t242.5 -163q105 -105 160 -240.5t55 -286.5q0 -152 -54.5 -284t-160.5 -236q-111 -108 -248 -165.5t-282 -57.5q-147 0 -280.5 56.5t-241.5 164.5q-107 106 -163 240.5t-56 281.5zM233 735 q0 -125 47 -237t136 -201q88 -88 201 -135t237 -47t237.5 47t204.5 137q88 86 133.5 197t45.5 239q0 126 -46.5 238.5t-134.5 200.5q-89 89 -201 135.5t-239 46.5q-128 0 -239.5 -46t-198.5 -134q-89 -90 -136 -203.5t-47 -237.5zM453 729q0 206 109.5 328.5t293.5 122.5 q152 0 250.5 -78t105.5 -205h-188q-8 70 -53 108.5t-119 38.5q-91 0 -143 -81.5t-52 -227.5q0 -147 52 -224t151 -77q73 0 117 42t53 119l193 1q-8 -139 -109 -223t-260 -84q-186 0 -293.5 118t-107.5 322z" />
<glyph unicode="&#xaa;" horiz-adv-x="659" d="M33 963q0 87 57.5 141.5t147.5 54.5h159q63 0 101.5 30t38.5 79q0 56 -36.5 92.5t-90.5 36.5q-47 0 -75 -21t-54 -82q-24 -56 -53 -76t-76 -20t-79 34.5t-32 84.5q0 72 82.5 124t204.5 52q144 0 217 -64.5t73 -191.5v-238q0 -128 -72.5 -192t-217.5 -64q-139 0 -217 58 t-78 162zM123 961q0 -48 33.5 -78.5t85.5 -30.5q56 0 88 31t32 86v108h-108q-59 0 -95 -31.5t-36 -84.5z" />
<glyph unicode="&#xab;" horiz-adv-x="674" d="M39 530q0 19 7 36.5t32 51.5l145 189l3 4q33 43 59 43q23 0 43 -18.5t20 -40.5q0 -24 -23 -54l-1 -1l-125 -162q-15 -21 -21 -32.5t-6 -19.5q0 -7 6 -18.5t21 -32.5l124 -161l2 -3q23 -29 23 -53q0 -22 -20 -40.5t-43 -18.5q-15 0 -27 7.5t-35 37.5l-145 198q-2 3 -5 7 q-34 47 -34 81zM305 530q0 19 7 36.5t32 51.5l145 188l3 4q34 44 59 44q24 0 43.5 -18.5t19.5 -40.5q0 -24 -22 -53l-2 -3l-127 -161q-13 -18 -19 -30.5t-6 -21.5t6 -21t19 -30l127 -162l1 -1q23 -30 23 -54q0 -22 -19.5 -40.5t-43.5 -18.5q-15 0 -27 7.5t-35 37.5l-145 198 q-1 2 -4 6q-35 48 -35 82z" />
<glyph unicode="&#xac;" horiz-adv-x="1706" d="M254 668v196h1198v-502h-199v306h-999z" />
<glyph unicode="&#xad;" horiz-adv-x="645" d="M47 524q0 35 19 50.5t65 15.5h383q46 0 65 -14.5t19 -49.5t-19 -50t-65 -15h-383q-46 0 -65 14.5t-19 48.5z" />
<glyph unicode="&#xae;" horiz-adv-x="1706" d="M111 733q0 102 27 198.5t81 188.5q101 170 267 264.5t366 94.5q154 0 290.5 -57.5t243.5 -166.5q103 -104 157 -238t54 -284q0 -152 -56 -287.5t-163 -238.5q-107 -105 -243.5 -161t-282.5 -56q-149 0 -285 58t-243 167q-104 105 -158.5 238.5t-54.5 279.5zM233 735 q0 -124 46 -235.5t133 -198.5q89 -91 203 -139.5t237 -48.5q120 0 233.5 47t206.5 135q87 84 135 196t48 232q0 133 -44.5 245t-132.5 201q-90 93 -202.5 140t-241.5 47q-127 0 -236 -44.5t-196 -131.5q-91 -91 -140 -206.5t-49 -238.5zM545 336v825h323q176 0 264.5 -59.5 t88.5 -177.5q0 -82 -48 -140t-133 -79l185 -369h-224l-157 338h-99v-338h-200zM745 795h99q88 0 129 28t41 88q0 63 -44 93t-136 30h-89v-239z" />
<glyph unicode="&#xaf;" horiz-adv-x="1024" d="M242 1260q0 34 22.5 55.5t59.5 21.5h376q38 0 60 -20.5t22 -54.5q0 -35 -22.5 -56.5t-59.5 -21.5h-376q-38 0 -60 20.5t-22 55.5z" />
<glyph unicode="&#xb0;" horiz-adv-x="674" d="M35 1159q0 127 88.5 216t214.5 89t214.5 -89.5t88.5 -215.5q0 -125 -89 -214t-216 -89q-126 0 -213.5 88t-87.5 215zM162 1161q0 -74 51 -125t125 -51q72 0 123 52t51 124t-51 123t-123 51q-73 0 -124.5 -51t-51.5 -123z" />
<glyph unicode="&#xb1;" horiz-adv-x="1706" d="M254 -2v199h1198v-199h-1198zM254 698v199h498v326h202v-326h498v-199h-498v-325h-202v325h-498z" />
<glyph unicode="&#xb2;" horiz-adv-x="600" d="M31 1223v53q0 109 62.5 161t193.5 52q111 0 177 -44t66 -116q0 -28 -14 -66t-41 -81l-202 -315q-7 -10 -10 -18.5t-3 -14.5q0 -18 11 -25.5t36 -7.5h135q66 0 93.5 -24t27.5 -79t-28 -79.5t-93 -24.5h-319q-30 0 -48 12t-18 33q0 18 25 55q4 5 6 8l326 513l2 3 q39 63 39 97q0 39 -29 63.5t-76 24.5q-53 0 -77.5 -28t-24.5 -89v-63q0 -60 -24.5 -84.5t-82.5 -24.5q-59 0 -84.5 25t-25.5 84z" />
<glyph unicode="&#xb3;" horiz-adv-x="600" d="M39 743q0 43 32 70t83 27q40 0 65 -18.5t47 -65.5q20 -45 42 -61.5t59 -16.5q51 0 80.5 25.5t29.5 70.5q0 35 -17.5 62.5t-51.5 44.5l-148 71q-35 17 -46 27.5t-11 24.5q0 12 6 25.5t20 33.5l99 149q5 12 7.5 19.5t2.5 13.5q0 17 -10.5 24t-36.5 7h-123q-64 0 -91.5 24 t-27.5 80t27.5 80.5t91.5 24.5h321q39 0 54.5 -8t15.5 -27q0 -11 -4 -22.5t-12 -20.5l-136 -214q-2 -3 -6 -8q-18 -26 -18 -46q0 -9 6 -17t19 -16l43 -25q63 -36 82.5 -67t19.5 -80v-129q0 -111 -63 -164t-193 -53q-115 0 -186.5 43.5t-71.5 111.5z" />
<glyph unicode="&#xb4;" horiz-adv-x="1024" d="M387 1208q0 14 6 28.5t17 27.5l166 197l1 1q36 39 70 39t60 -22t26 -52q0 -19 -9.5 -40.5t-25.5 -36.5l-173 -172q-4 -3 -9 -8q-36 -33 -61 -33q-28 0 -48 21t-20 50z" />
<glyph unicode="&#xb5;" horiz-adv-x="1249" d="M-63 -438l268 1530h289l-76 -435q-15 -80 -23 -151.5t-8 -116.5q0 -93 42 -138.5t128 -45.5q100 0 155.5 82t92.5 291l90 514h289l-193 -1092h-268l18 117q-42 -78 -93.5 -114t-121.5 -36q-67 0 -119 29.5t-94 91.5l-90 -526h-286z" />
<glyph unicode="&#xb6;" horiz-adv-x="1024" d="M41 1130q0 158 107 253.5t284 95.5h551v-111h-113v-1368h-151v1368h-158v-1368h-153v784q-167 6 -267 101t-100 245z" />
<glyph unicode="&#xb7;" horiz-adv-x="455" d="M74 741q0 63 45 108.5t108 45.5t108.5 -45.5t45.5 -108.5t-45.5 -108t-108.5 -45q-62 0 -107.5 45.5t-45.5 107.5z" />
<glyph unicode="&#xb8;" horiz-adv-x="1024" d="M297 -293q0 22 16.5 38.5t38.5 16.5q18 0 65.5 -28.5t82.5 -28.5q33 0 50 16t17 48q0 34 -17 51.5t-50 17.5q-15 0 -38 -8t-34 -8q-25 0 -43 12t-18 27q0 4 6 17t16 28l70 108h102l-57 -96q5 1 13 2q39 6 52 6q70 0 110 -40t40 -109q0 -86 -62 -135.5t-170 -49.5 q-82 0 -136 33t-54 82z" />
<glyph unicode="&#xb9;" horiz-adv-x="600" d="M78 1323q0 12 7 20t24 15l241 106q10 4 26 11q40 16 46 16q13 0 18.5 -7.5t5.5 -29.5v-14v-715q0 -74 -26.5 -105.5t-87.5 -31.5q-60 0 -86.5 32t-26.5 105v518q0 40 -7 50t-24 10q-8 -1 -11.5 -1.5t-8.5 -3.5l-33 -10q-5 -2 -10.5 -3t-11.5 -1q-13 0 -24 12t-11 27z" />
<glyph unicode="&#xba;" horiz-adv-x="655" d="M35 985v266q0 70 14 106t47 64q35 34 97 53t135 19q145 0 217.5 -64t72.5 -192v-238q0 -128 -72.5 -192t-217.5 -64q-72 0 -134 19t-98 51q-33 30 -47 66t-14 106zM293 997q0 -77 28 -108t93 -31q63 0 90.5 33.5t27.5 114.5v229q0 85 -27 117t-91 32q-65 0 -93 -36 t-28 -123v-228z" />
<glyph unicode="&#xbb;" horiz-adv-x="674" d="M59 258q0 24 24 54l1 1l125 162q15 21 21 32.5t6 18.5q0 8 -6 19.5t-21 32.5l-125 161l-2 3q-23 29 -23 53q0 21 20.5 40t43.5 19q25 0 59 -44l3 -4l145 -188q25 -34 32 -51.5t7 -36.5q0 -34 -35 -82q-3 -4 -4 -5l-146 -199q-22 -30 -34 -37.5t-27 -7.5q-24 0 -44 18.5 t-20 40.5zM326 258q0 24 23 54l1 1l125 162q15 21 21 32.5t6 18.5q0 8 -6 19.5t-21 32.5l-125 162l-1 1q-23 30 -23 54q0 21 20 40t43 19q25 0 59 -44l3 -4l143 -188q25 -34 32 -51.5t7 -36.5q0 -34 -35 -82q-3 -4 -4 -6l-143 -198q-23 -30 -35 -37.5t-27 -7.5 q-23 0 -43 18.5t-20 40.5z" />
<glyph unicode="&#xbc;" horiz-adv-x="1489" d="M72 1335q0 10 7.5 17.5t22.5 13.5l231 98l9 4q52 23 57 23q14 0 19.5 -7t5.5 -28v-12v-668q0 -70 -25 -99.5t-84 -29.5q-57 0 -81.5 29.5t-24.5 99.5v484q0 36 -7 45.5t-24 9.5q-7 0 -11 -1t-7 -3l-33 -11q-3 0 -8 -1q-11 -3 -15 -3q-11 0 -21.5 12.5t-10.5 26.5z M231 -12q0 11 3.5 21t13.5 26l911 1476q13 21 24.5 30t24.5 9q18 0 33.5 -13.5t15.5 -29.5q0 -13 -3.5 -23.5t-12.5 -23.5l-911 -1476q-12 -18 -26.5 -28.5t-27.5 -10.5q-17 0 -31 13.5t-14 29.5zM932 213q0 6 3 15t9 20l346 547q19 27 29 34t24 7q15 0 21 -5.5t6 -21.5v-18 v-494q0 -25 9 -35t30 -10h18q23 0 33 -8t10 -27t-9.5 -27t-33.5 -8h-18q-21 0 -30 -10t-9 -35v-14q0 -71 -24.5 -100t-81.5 -29t-82 29.5t-25 99.5v14q0 28 -10 37.5t-35 9.5h-143q-18 0 -27.5 7.5t-9.5 21.5zM1047 279q0 -12 8.5 -19.5t21.5 -7.5h45q24 0 33.5 11t9.5 40 v78q0 8 -5.5 13t-14.5 5q-10 0 -18.5 -4t-16.5 -14l-57 -88q-3 -3 -4.5 -6.5t-1.5 -7.5z" />
<glyph unicode="&#xbd;" horiz-adv-x="1489" d="M72 1335q0 10 7.5 17.5t22.5 13.5l231 98l9 4q52 23 57 23q14 0 19.5 -7t5.5 -28v-12v-668q0 -70 -25 -99.5t-84 -29.5q-57 0 -81.5 29.5t-24.5 99.5v484q0 36 -7 45.5t-24 9.5q-7 0 -11 -1t-7 -3l-33 -11q-3 0 -8 -1q-11 -3 -15 -3q-11 0 -21.5 12.5t-10.5 26.5z M231 -12q0 11 3.5 21t13.5 26l911 1476q13 21 24.5 30t24.5 9q18 0 33.5 -13.5t15.5 -29.5q0 -13 -3.5 -23.5t-12.5 -23.5l-911 -1476q-12 -18 -26.5 -28.5t-27.5 -10.5q-17 0 -31 13.5t-14 29.5zM944 586v51q0 101 60.5 150t185.5 49q105 0 169 -41.5t64 -108.5 q0 -26 -14 -61.5t-41 -75.5l-193 -296q-5 -6 -7.5 -13.5t-2.5 -16.5q1 -16 10.5 -22t34.5 -6h129q61 0 87 -23t26 -74q0 -52 -26 -75t-87 -23h-307q-28 0 -44.5 11t-16.5 30q0 12 5.5 24.5t22.5 36.5l312 478q2 4 7 12q32 53 32 82q0 36 -28 59t-73 23q-50 0 -73 -26.5 t-23 -84.5v-59q0 -55 -24 -78t-78 -23q-57 0 -82 23.5t-25 77.5z" />
<glyph unicode="&#xbe;" horiz-adv-x="1487" d="M37 793q0 40 30 65t78 25q41 0 65 -17t44 -63q20 -41 40.5 -55.5t55.5 -14.5q49 0 77 23.5t28 64.5q0 34 -16.5 58.5t-49.5 40.5l-141 67q-36 18 -44.5 27t-8.5 20q0 17 18 50q3 5 4 8l94 139q6 8 9.5 15.5t3.5 15.5q-1 15 -11.5 21.5t-36.5 6.5h-116q-61 0 -87 22.5 t-26 73.5q0 53 25.5 76t87.5 23h307q38 0 53 -7.5t15 -25.5q-1 -9 -5 -19.5t-12 -21.5l-129 -197q-2 -3 -7 -9q-17 -25 -17 -44q0 -8 5.5 -15t18.5 -13l41 -25q61 -34 79.5 -62.5t18.5 -74.5v-121q0 -103 -59.5 -153t-183.5 -50q-110 0 -179 41t-69 105zM231 -12 q0 11 3.5 21t13.5 26l911 1476q13 21 24.5 30t24.5 9q18 0 33.5 -13.5t15.5 -29.5q0 -13 -3.5 -23.5t-12.5 -23.5l-911 -1476q-12 -18 -26.5 -28.5t-27.5 -10.5q-17 0 -31 13.5t-14 29.5zM932 213q0 6 3 15t9 20l346 547q19 27 29 34t24 7q15 0 21 -5.5t6 -21.5v-18v-494 q0 -25 9 -35t30 -10h18q23 0 33 -8t10 -27t-9.5 -27t-33.5 -8h-18q-21 0 -30 -10t-9 -35v-14q0 -71 -24.5 -100t-81.5 -29t-82 29.5t-25 99.5v14q0 28 -10 37.5t-35 9.5h-143q-18 0 -27.5 7.5t-9.5 21.5zM1047 279q0 -12 8.5 -19.5t21.5 -7.5h45q24 0 33.5 11t9.5 40v78 q0 8 -5.5 13t-14.5 5q-10 0 -18.5 -4t-16.5 -14l-57 -88q-3 -3 -4.5 -6.5t-1.5 -7.5z" />
<glyph unicode="&#xbf;" horiz-adv-x="920" d="M66 317v35v271q0 59 47 117.5t137 111.5l319 186q38 21 63 29t48 8q71 0 124.5 -57t53.5 -133q0 -92 -113 -158q-10 -6 -14 -8l-436 -258q-55 -32 -82 -74.5t-27 -97.5q0 -69 45 -110.5t119 -41.5q83 0 121.5 49t38.5 154v57q0 99 39.5 140t134.5 41q94 0 134 -41.5 t40 -139.5v-41q0 -183 -99 -274.5t-298 -91.5q-100 0 -181 27t-133 77q-44 43 -62.5 89t-18.5 134zM514 1329q0 68 48 116t116 48q69 0 117.5 -48t48.5 -116q0 -67 -49.5 -116.5t-116.5 -49.5t-115.5 49t-48.5 117z" />
<glyph unicode="&#xc0;" horiz-adv-x="1053" d="M-16 55q0 7 3 19t9 26l471 1311q15 44 32.5 63t41.5 19q22 0 39 -19t32 -63l406 -1139q16 -45 22.5 -72t6.5 -50q0 -71 -50 -115.5t-129 -44.5q-56 0 -94.5 39t-71.5 135l-10 29q-25 73 -45 93.5t-57 20.5h-338q-36 0 -56 -19t-46 -95l-48 -132q-13 -35 -26 -49t-31 -14 q-28 0 -44.5 15.5t-16.5 41.5zM254 481q0 -27 17.5 -43t47.5 -16h197q31 0 48.5 16t17.5 43q0 8 -11 34q-5 12 -8 20l-76 210q-15 46 -31 64t-38 18t-38.5 -19t-31.5 -63l-76 -211q-2 -6 -7 -18q-11 -27 -11 -35zM312 1859q0 30 26 52t60 22t70 -39l1 -1l166 -197 q11 -13 17 -27.5t6 -28.5q0 -29 -20 -50t-48 -21q-25 0 -61 33q-6 5 -9 8l-174 172q-15 15 -24.5 36.5t-9.5 40.5z" />
<glyph unicode="&#xc1;" horiz-adv-x="1053" d="M-16 55q0 7 3 19t9 26l471 1311q15 44 32.5 63t41.5 19q22 0 39 -19t32 -63l406 -1139q16 -45 22.5 -72t6.5 -50q0 -71 -50 -115.5t-129 -44.5q-56 0 -94.5 39t-71.5 135l-10 29q-25 73 -45 93.5t-57 20.5h-338q-36 0 -56 -19t-46 -95l-48 -132q-13 -35 -26 -49t-31 -14 q-28 0 -44.5 15.5t-16.5 41.5zM254 481q0 -27 17.5 -43t47.5 -16h197q31 0 48.5 16t17.5 43q0 8 -11 34q-5 12 -8 20l-76 210q-15 46 -31 64t-38 18t-38.5 -19t-31.5 -63l-76 -211q-2 -6 -7 -18q-11 -27 -11 -35zM414 1640q0 14 6 28.5t17 27.5l166 197l1 1q36 39 70 39 t60 -22t26 -52q0 -19 -9.5 -40.5t-25.5 -36.5l-173 -172q-4 -3 -9 -8q-36 -33 -61 -33q-28 0 -48 21t-20 50z" />
<glyph unicode="&#xc2;" horiz-adv-x="1053" d="M-16 55q0 7 3 19t9 26l471 1311q15 44 32.5 63t41.5 19q22 0 39 -19t32 -63l406 -1139q16 -45 22.5 -72t6.5 -50q0 -71 -50 -115.5t-129 -44.5q-56 0 -94.5 39t-71.5 135l-10 29q-25 73 -45 93.5t-57 20.5h-338q-36 0 -56 -19t-46 -95l-48 -132q-13 -35 -26 -49t-31 -14 q-28 0 -44.5 15.5t-16.5 41.5zM236 1632q0 17 12 36t33 36l186 141q15 12 33.5 18.5t38.5 6.5t38.5 -6.5t33.5 -18.5l186 -141q21 -17 33 -36t12 -36q0 -26 -19.5 -44.5t-45.5 -18.5q-14 0 -30 5t-30 15l-178 113l-180 -113q-14 -10 -29 -15t-29 -5q-26 0 -45.5 18.5 t-19.5 44.5zM254 481q0 -27 17.5 -43t47.5 -16h197q31 0 48.5 16t17.5 43q0 8 -11 34q-5 12 -8 20l-76 210q-15 46 -31 64t-38 18t-38.5 -19t-31.5 -63l-76 -211q-2 -6 -7 -18q-11 -27 -11 -35z" />
<glyph unicode="&#xc3;" horiz-adv-x="1053" d="M-16 55q0 7 3 19t9 26l471 1311q15 44 32.5 63t41.5 19q22 0 39 -19t32 -63l406 -1139q16 -45 22.5 -72t6.5 -50q0 -71 -50 -115.5t-129 -44.5q-56 0 -94.5 39t-71.5 135l-10 29q-25 73 -45 93.5t-57 20.5h-338q-36 0 -56 -19t-46 -95l-48 -132q-13 -35 -26 -49t-31 -14 q-28 0 -44.5 15.5t-16.5 41.5zM254 481q0 -27 17.5 -43t47.5 -16h197q31 0 48.5 16t17.5 43q0 8 -11 34q-5 12 -8 20l-76 210q-15 46 -31 64t-38 18t-38.5 -19t-31.5 -63l-76 -211q-2 -6 -7 -18q-11 -27 -11 -35zM297 1653q0 56 43 92.5t111 36.5q33 0 87 -16.5t77 -16.5 q26 0 62.5 16.5t51.5 16.5q26 0 39 -13.5t13 -40.5q0 -57 -42.5 -94t-109.5 -37q-33 0 -88 17.5t-78 17.5q-26 0 -62.5 -17.5t-51.5 -17.5q-26 0 -39 14t-13 42z" />
<glyph unicode="&#xc4;" horiz-adv-x="1053" d="M-16 55q0 7 3 19t9 26l471 1311q15 44 32.5 63t41.5 19q22 0 39 -19t32 -63l406 -1139q16 -45 22.5 -72t6.5 -50q0 -71 -50 -115.5t-129 -44.5q-56 0 -94.5 39t-71.5 135l-10 29q-25 73 -45 93.5t-57 20.5h-338q-36 0 -56 -19t-46 -95l-48 -132q-13 -35 -26 -49t-31 -14 q-28 0 -44.5 15.5t-16.5 41.5zM254 481q0 -27 17.5 -43t47.5 -16h197q31 0 48.5 16t17.5 43q0 8 -11 34q-5 12 -8 20l-76 210q-15 46 -31 64t-38 18t-38.5 -19t-31.5 -63l-76 -211q-2 -6 -7 -18q-11 -27 -11 -35zM324 1692q0 53 23 82.5t65 29.5q44 0 66 -28.5t22 -83.5 q0 -54 -22.5 -82.5t-65.5 -28.5q-41 0 -64.5 29.5t-23.5 81.5zM578 1692q0 52 24 82t66 30q43 0 64.5 -28t21.5 -84q0 -55 -22 -83t-64 -28q-41 0 -65.5 30t-24.5 81z" />
<glyph unicode="&#xc5;" horiz-adv-x="1053" d="M-16 53q0 5 3 15.5t9 27.5l471 1286q16 44 33 63t41 19q22 0 39 -19t32 -63l406 -1116q16 -41 22.5 -68.5t6.5 -50.5q0 -69 -50.5 -113t-128.5 -44q-57 0 -94.5 37.5t-71.5 132.5l-10 28q-25 73 -45 93t-57 20h-338q-35 0 -55 -18.5t-47 -94.5l-48 -129 q-13 -35 -26.5 -48t-34.5 -13q-26 0 -41.5 15t-15.5 40zM254 471q0 -27 17 -42t48 -15h197q31 0 48.5 15t17.5 42q0 8 -11 34q-5 12 -8 20l-76 206q-15 44 -31 62t-38 18t-38.5 -19t-29.5 -61l-78 -207q-2 -6 -7 -19q-11 -26 -11 -34zM348 1700q0 79 56 135.5t135 56.5 t135.5 -56t56.5 -136q0 -81 -56 -137t-136 -56t-135.5 56.5t-55.5 136.5zM459 1700q0 -32 24.5 -57t57.5 -25t57.5 24.5t24.5 57.5q0 34 -24.5 58t-57.5 24q-34 0 -58 -24t-24 -58z" />
<glyph unicode="&#xc6;" horiz-adv-x="1432" d="M-41 53q0 9 3 20t9 23l660 1272q40 78 68.5 97.5t80.5 19.5h506q46 0 65 -14t19 -46q0 -31 -19.5 -45t-64.5 -14h-211q-57 0 -73.5 -16t-16.5 -74v-387q0 -58 16.5 -74t73.5 -16h211q46 0 65 -14t19 -46t-19 -45.5t-65 -13.5h-211q-57 0 -73.5 -16t-16.5 -74v-268 q0 -106 42 -150.5t142 -44.5h193q46 0 65 -14.5t19 -49.5q0 -34 -18.5 -48.5t-65.5 -14.5h-524q-86 0 -135.5 51t-49.5 142v45q0 58 -16.5 74t-73.5 16h-264q-70 0 -118 -96q-7 -14 -11 -21l-80 -160l-5 -10q-24 -47 -60 -47q-29 0 -47.5 17t-18.5 42zM324 500 q0 -28 16.5 -44t46.5 -16h176q57 0 73.5 16t16.5 74v349q0 40 -13.5 61t-39.5 21q-27 0 -46 -16t-42 -62l-172 -328q-8 -15 -12 -30t-4 -25z" />
<glyph unicode="&#xc7;" d="M74 356v772q0 186 95 275.5t292 89.5q192 0 284.5 -79t92.5 -243v-129q0 -123 -38.5 -176t-125.5 -53t-125.5 53t-38.5 176v107q0 110 -37.5 154.5t-124.5 44.5q-86 0 -124 -49t-38 -162v-777q0 -113 38 -161.5t124 -48.5q87 0 124.5 44t37.5 154v98q0 123 38 175.5 t126 52.5t126 -52.5t38 -175.5v-135q0 -164 -92 -242.5t-283 -78.5q-197 0 -293 90.5t-96 275.5zM240 -293q0 22 16.5 38.5t38.5 16.5q18 0 65.5 -28.5t82.5 -28.5q33 0 50 16t17 48q0 34 -17 51.5t-50 17.5q-15 0 -38 -8t-34 -8q-25 0 -43 12t-18 27q0 4 6 17t16 28l70 108 h102l-57 -96q5 1 13 2q39 6 52 6q70 0 110 -40t40 -109q0 -86 -62 -135.5t-170 -49.5q-82 0 -136 33t-54 82z" />
<glyph unicode="&#xc8;" horiz-adv-x="883" d="M86 193v1097q0 92 48.5 143.5t133.5 51.5h467q46 0 65 -14t19 -46q0 -31 -19.5 -45t-64.5 -14h-209q-57 0 -73.5 -16t-16.5 -74v-387q0 -58 16.5 -74t73.5 -16h209q46 0 65 -14t19 -46t-19 -45.5t-65 -13.5h-209q-57 0 -73.5 -16t-16.5 -74v-268q0 -106 42 -150.5 t143 -44.5h192q46 0 64 -14.5t18 -49.5q0 -34 -18 -48.5t-64 -14.5h-545q-85 0 -133.5 51t-48.5 142zM248 1859q0 30 26 52t60 22t70 -39l1 -1l166 -197q11 -13 17 -27.5t6 -28.5q0 -29 -20 -50t-48 -21q-25 0 -61 33q-6 5 -9 8l-174 172q-15 15 -24.5 36.5t-9.5 40.5z" />
<glyph unicode="&#xc9;" horiz-adv-x="883" d="M86 193v1097q0 92 48.5 143.5t133.5 51.5h467q46 0 65 -14t19 -46q0 -31 -19.5 -45t-64.5 -14h-209q-57 0 -73.5 -16t-16.5 -74v-387q0 -58 16.5 -74t73.5 -16h209q46 0 65 -14t19 -46t-19 -45.5t-65 -13.5h-209q-57 0 -73.5 -16t-16.5 -74v-268q0 -106 42 -150.5 t143 -44.5h192q46 0 64 -14.5t18 -49.5q0 -34 -18 -48.5t-64 -14.5h-545q-85 0 -133.5 51t-48.5 142zM350 1640q0 14 6 28.5t17 27.5l166 197l1 1q36 39 70 39t60 -22t26 -52q0 -19 -9.5 -40.5t-25.5 -36.5l-173 -172q-4 -3 -9 -8q-36 -33 -61 -33q-28 0 -48 21t-20 50z" />
<glyph unicode="&#xca;" horiz-adv-x="883" d="M86 193v1097q0 92 48.5 143.5t133.5 51.5h467q46 0 65 -14t19 -46q0 -31 -19.5 -45t-64.5 -14h-209q-57 0 -73.5 -16t-16.5 -74v-387q0 -58 16.5 -74t73.5 -16h209q46 0 65 -14t19 -46t-19 -45.5t-65 -13.5h-209q-57 0 -73.5 -16t-16.5 -74v-268q0 -106 42 -150.5 t143 -44.5h192q46 0 64 -14.5t18 -49.5q0 -34 -18 -48.5t-64 -14.5h-545q-85 0 -133.5 51t-48.5 142zM172 1632q0 17 12 36t33 36l186 141q15 12 33.5 18.5t38.5 6.5t38.5 -6.5t33.5 -18.5l186 -141q21 -17 33 -36t12 -36q0 -26 -19.5 -44.5t-45.5 -18.5q-14 0 -30 5t-30 15 l-178 113l-180 -113q-14 -10 -29 -15t-29 -5q-26 0 -45.5 18.5t-19.5 44.5z" />
<glyph unicode="&#xcb;" horiz-adv-x="883" d="M86 193v1097q0 92 48.5 143.5t133.5 51.5h467q46 0 65 -14t19 -46q0 -31 -19.5 -45t-64.5 -14h-209q-57 0 -73.5 -16t-16.5 -74v-387q0 -58 16.5 -74t73.5 -16h209q46 0 65 -14t19 -46t-19 -45.5t-65 -13.5h-209q-57 0 -73.5 -16t-16.5 -74v-268q0 -106 42 -150.5 t143 -44.5h192q46 0 64 -14.5t18 -49.5q0 -34 -18 -48.5t-64 -14.5h-545q-85 0 -133.5 51t-48.5 142zM260 1692q0 53 23 82.5t65 29.5q44 0 66 -28.5t22 -83.5q0 -54 -22.5 -82.5t-65.5 -28.5q-41 0 -64.5 29.5t-23.5 81.5zM514 1692q0 52 24 82t66 30q43 0 64.5 -28 t21.5 -84q0 -55 -22 -83t-64 -28q-41 0 -65.5 30t-24.5 81z" />
<glyph unicode="&#xcc;" horiz-adv-x="522" d="M35 1859q0 30 26 52t60 22t70 -39l1 -1l166 -197q11 -13 17 -27.5t6 -28.5q0 -29 -20 -50t-48 -21q-25 0 -61 33q-6 5 -9 8l-174 172q-15 15 -24.5 36.5t-9.5 40.5zM86 219v1047q0 123 41 175t135 52t134 -51.5t40 -175.5v-1047q0 -123 -40.5 -176t-133.5 -53 q-95 0 -135.5 52t-40.5 177z" />
<glyph unicode="&#xcd;" horiz-adv-x="522" d="M86 219v1047q0 123 41 175t135 52t134 -51.5t40 -175.5v-1047q0 -123 -40.5 -176t-133.5 -53q-95 0 -135.5 52t-40.5 177zM137 1640q0 14 6 28.5t17 27.5l166 197l1 1q36 39 70 39t60 -22t26 -52q0 -19 -9.5 -40.5t-25.5 -36.5l-173 -172q-4 -3 -9 -8q-36 -33 -61 -33 q-28 0 -48 21t-20 50z" />
<glyph unicode="&#xce;" horiz-adv-x="522" d="M-41 1632q0 17 12 36t33 36l186 141q15 12 33.5 18.5t38.5 6.5t38.5 -6.5t33.5 -18.5l186 -141q21 -17 33 -36t12 -36q0 -26 -19.5 -44.5t-45.5 -18.5q-14 0 -30 5t-30 15l-178 113l-180 -113q-14 -10 -29 -15t-29 -5q-26 0 -45.5 18.5t-19.5 44.5zM86 219v1047 q0 123 41 175t135 52t134 -51.5t40 -175.5v-1047q0 -123 -40.5 -176t-133.5 -53q-95 0 -135.5 52t-40.5 177z" />
<glyph unicode="&#xcf;" horiz-adv-x="522" d="M47 1692q0 53 23 82.5t65 29.5q44 0 66 -28.5t22 -83.5q0 -54 -22.5 -82.5t-65.5 -28.5q-41 0 -64.5 29.5t-23.5 81.5zM86 219v1047q0 123 41 175t135 52t134 -51.5t40 -175.5v-1047q0 -123 -40.5 -176t-133.5 -53q-95 0 -135.5 52t-40.5 177zM301 1692q0 52 24 82t66 30 q43 0 64.5 -28t21.5 -84q0 -55 -22 -83t-64 -28q-41 0 -65.5 30t-24.5 81z" />
<glyph unicode="&#xd0;" horiz-adv-x="967" d="M10 786q0 31 18.5 45.5t57.5 14.5h8v282q0 186 99.5 275.5t306.5 89.5q196 0 289.5 -76t93.5 -235v-989q0 -105 -41.5 -149t-143.5 -44h-604v727h-14q-35 0 -52.5 15t-17.5 44zM217 133h139q102 0 143.5 44t41.5 149v823q0 110 -37.5 154.5t-124.5 44.5q-86 0 -124 -49 t-38 -162v-291h80q45 0 63.5 -13.5t18.5 -46.5q0 -32 -18.5 -45.5t-63.5 -13.5h-80v-594z" />
<glyph unicode="&#xd1;" horiz-adv-x="924" d="M86 74v1192q0 124 37.5 175.5t124.5 51.5q122 0 198 -210l7 -17l135 -369v-1q41 -110 86 -110q28 0 39.5 14t11.5 64v547q0 46 13 64t44 18t44.5 -18t13.5 -64v-1192q0 -124 -38.5 -176.5t-125.5 -52.5q-120 0 -194 204q-6 17 -9 25l-135 369q-26 69 -43.5 88.5 t-44.5 19.5q-29 0 -40 -13t-11 -62v-547q0 -46 -13.5 -65t-44.5 -19q-30 0 -42.5 18t-12.5 66zM221 1653q0 56 43 92.5t111 36.5q33 0 87 -16.5t77 -16.5q26 0 62.5 16.5t51.5 16.5q26 0 39 -13.5t13 -40.5q0 -57 -42.5 -94t-109.5 -37q-33 0 -88 17.5t-78 17.5 q-26 0 -62.5 -17.5t-51.5 -17.5q-26 0 -39 14t-13 42z" />
<glyph unicode="&#xd2;" d="M74 289v22v883q0 80 18 123t60 84q49 46 125.5 69t181.5 23q189 0 284 -91.5t95 -273.5v-772q0 -182 -95.5 -274t-283.5 -92q-103 0 -180 23.5t-127 70.5q-42 39 -60 82t-18 123zM228 1859q0 30 26 52t60 22t70 -39l1 -1l166 -197q11 -13 17 -27.5t6 -28.5q0 -29 -20 -50 t-48 -21q-25 0 -61 33q-6 5 -9 8l-174 172q-15 15 -24.5 36.5t-9.5 40.5zM401 348q0 -111 37 -154.5t123 -43.5t124 48.5t38 161.5v777q0 113 -38 162t-124 49t-123 -44t-37 -155v-801z" />
<glyph unicode="&#xd3;" d="M74 289v22v883q0 80 18 123t60 84q49 46 125.5 69t181.5 23q189 0 284 -91.5t95 -273.5v-772q0 -182 -95.5 -274t-283.5 -92q-103 0 -180 23.5t-127 70.5q-42 39 -60 82t-18 123zM330 1640q0 14 6 28.5t17 27.5l166 197l1 1q36 39 70 39t60 -22t26 -52q0 -19 -9.5 -40.5 t-25.5 -36.5l-173 -172q-4 -3 -9 -8q-36 -33 -61 -33q-28 0 -48 21t-20 50zM401 348q0 -111 37 -154.5t123 -43.5t124 48.5t38 161.5v777q0 113 -38 162t-124 49t-123 -44t-37 -155v-801z" />
<glyph unicode="&#xd4;" d="M74 289v22v883q0 80 18 123t60 84q49 46 125.5 69t181.5 23q189 0 284 -91.5t95 -273.5v-772q0 -182 -95.5 -274t-283.5 -92q-103 0 -180 23.5t-127 70.5q-42 39 -60 82t-18 123zM152 1632q0 17 12 36t33 36l186 141q15 12 33.5 18.5t38.5 6.5t38.5 -6.5t33.5 -18.5 l186 -141q21 -17 33 -36t12 -36q0 -26 -19.5 -44.5t-45.5 -18.5q-14 0 -30 5t-30 15l-178 113l-180 -113q-14 -10 -29 -15t-29 -5q-26 0 -45.5 18.5t-19.5 44.5zM401 348q0 -111 37 -154.5t123 -43.5t124 48.5t38 161.5v777q0 113 -38 162t-124 49t-123 -44t-37 -155v-801z " />
<glyph unicode="&#xd5;" d="M74 289v22v883q0 80 18 123t60 84q49 46 125.5 69t181.5 23q189 0 284 -91.5t95 -273.5v-772q0 -182 -95.5 -274t-283.5 -92q-103 0 -180 23.5t-127 70.5q-42 39 -60 82t-18 123zM213 1653q0 56 43 92.5t111 36.5q33 0 87 -16.5t77 -16.5q26 0 62.5 16.5t51.5 16.5 q26 0 39 -13.5t13 -40.5q0 -57 -42.5 -94t-109.5 -37q-33 0 -88 17.5t-78 17.5q-26 0 -62.5 -17.5t-51.5 -17.5q-26 0 -39 14t-13 42zM401 348q0 -111 37 -154.5t123 -43.5t124 48.5t38 161.5v777q0 113 -38 162t-124 49t-123 -44t-37 -155v-801z" />
<glyph unicode="&#xd6;" d="M74 289v22v883q0 80 18 123t60 84q49 46 125.5 69t181.5 23q189 0 284 -91.5t95 -273.5v-772q0 -182 -95.5 -274t-283.5 -92q-103 0 -180 23.5t-127 70.5q-42 39 -60 82t-18 123zM240 1692q0 53 23 82.5t65 29.5q44 0 66 -28.5t22 -83.5q0 -54 -22.5 -82.5t-65.5 -28.5 q-41 0 -64.5 29.5t-23.5 81.5zM401 348q0 -111 37 -154.5t123 -43.5t124 48.5t38 161.5v777q0 113 -38 162t-124 49t-123 -44t-37 -155v-801zM494 1692q0 52 24 82t66 30q43 0 64.5 -28t21.5 -84q0 -55 -22 -83t-64 -28q-41 0 -65.5 30t-24.5 81z" />
<glyph unicode="&#xd7;" horiz-adv-x="1706" d="M276 160l451 450l-451 453l140 139l450 -450l451 450l141 -139l-450 -453l450 -450l-141 -140l-451 451l-450 -451z" />
<glyph unicode="&#xd8;" d="M39 4q0 17 16 48q1 3 2 5l45 86q-15 25 -21.5 51.5t-6.5 71.5v45v883q0 80 18 123.5t60 83.5q51 46 127 69t180 23q85 0 155.5 -22t124.5 -66l33 51q2 3 6 11q20 38 47 38q18 0 30.5 -13t12.5 -34q0 -17 -15 -48q-2 -3 -3 -5l-45 -86q17 -36 25 -75t8 -116v-772 q0 -186 -98 -276t-300 -90q-80 0 -143 18.5t-125 59.5l-37 -62l-2 -4q-26 -45 -53 -45q-18 0 -29.5 13t-11.5 34zM401 348q0 -111 37 -154.5t123 -43.5t124 48.5t38 161.5v805l-322 -622v-195zM401 750l287 542q-18 29 -48.5 42.5t-78.5 13.5q-86 0 -123 -44t-37 -155v-399z " />
<glyph unicode="&#xd9;" horiz-adv-x="930" d="M74 311v955q0 124 39 175.5t131 51.5q91 0 131.5 -52.5t40.5 -174.5v-918q0 -111 36.5 -154.5t122.5 -43.5q87 0 124.5 48.5t37.5 161.5v1051q0 46 13.5 64t44.5 18t44 -18t13 -64v-1055q0 -185 -98.5 -275.5t-298.5 -90.5q-194 0 -287.5 79t-93.5 242zM271 1859 q0 30 26 52t60 22t70 -39l1 -1l166 -197q11 -13 17 -27.5t6 -28.5q0 -29 -20 -50t-48 -21q-25 0 -61 33q-6 5 -9 8l-174 172q-15 15 -24.5 36.5t-9.5 40.5z" />
<glyph unicode="&#xda;" horiz-adv-x="930" d="M74 311v955q0 124 39 175.5t131 51.5q91 0 131.5 -52.5t40.5 -174.5v-918q0 -111 36.5 -154.5t122.5 -43.5q87 0 124.5 48.5t37.5 161.5v1051q0 46 13.5 64t44.5 18t44 -18t13 -64v-1055q0 -185 -98.5 -275.5t-298.5 -90.5q-194 0 -287.5 79t-93.5 242zM373 1640 q0 14 6 28.5t17 27.5l166 197l1 1q36 39 70 39t60 -22t26 -52q0 -19 -9.5 -40.5t-25.5 -36.5l-173 -172q-4 -3 -9 -8q-36 -33 -61 -33q-28 0 -48 21t-20 50z" />
<glyph unicode="&#xdb;" horiz-adv-x="930" d="M74 311v955q0 124 39 175.5t131 51.5q91 0 131.5 -52.5t40.5 -174.5v-918q0 -111 36.5 -154.5t122.5 -43.5q87 0 124.5 48.5t37.5 161.5v1051q0 46 13.5 64t44.5 18t44 -18t13 -64v-1055q0 -185 -98.5 -275.5t-298.5 -90.5q-194 0 -287.5 79t-93.5 242zM195 1632 q0 17 12 36t33 36l186 141q15 12 33.5 18.5t38.5 6.5t38.5 -6.5t33.5 -18.5l186 -141q21 -17 33 -36t12 -36q0 -26 -19.5 -44.5t-45.5 -18.5q-14 0 -30 5t-30 15l-178 113l-180 -113q-14 -10 -29 -15t-29 -5q-26 0 -45.5 18.5t-19.5 44.5z" />
<glyph unicode="&#xdc;" horiz-adv-x="930" d="M74 311v955q0 124 39 175.5t131 51.5q91 0 131.5 -52.5t40.5 -174.5v-918q0 -111 36.5 -154.5t122.5 -43.5q87 0 124.5 48.5t37.5 161.5v1051q0 46 13.5 64t44.5 18t44 -18t13 -64v-1055q0 -185 -98.5 -275.5t-298.5 -90.5q-194 0 -287.5 79t-93.5 242zM283 1692 q0 53 23 82.5t65 29.5q44 0 66 -28.5t22 -83.5q0 -54 -22.5 -82.5t-65.5 -28.5q-41 0 -64.5 29.5t-23.5 81.5zM537 1692q0 52 24 82t66 30q43 0 64.5 -28t21.5 -84q0 -55 -22 -83t-64 -28q-41 0 -65.5 30t-24.5 81z" />
<glyph unicode="&#xdd;" horiz-adv-x="834" d="M10 1335q0 71 49.5 114.5t128.5 43.5q58 0 95 -37t71 -135l103 -295q18 -50 31.5 -66t33.5 -16t34 16t32 66l139 397q12 35 25 48.5t32 13.5q28 0 45 -15.5t17 -42.5q0 -4 -2.5 -13t-9.5 -29l-236 -662q-12 -33 -18.5 -63t-6.5 -56q0 -8 1 -18t1 -11v-356 q0 -124 -39 -176.5t-130 -52.5t-130.5 52.5t-39.5 176.5v356q0 1 1 11t1 18q0 26 -6.5 56t-18.5 63l-174 489q-16 46 -22.5 74t-6.5 49zM293 1640q0 14 6 28.5t17 27.5l166 197l1 1q36 39 70 39t60 -22t26 -52q0 -19 -9.5 -40.5t-25.5 -36.5l-173 -172q-4 -3 -9 -8 q-36 -33 -61 -33q-28 0 -48 21t-20 50z" />
<glyph unicode="&#xde;" horiz-adv-x="928" d="M78 219v1049q0 121 40.5 173t131.5 52q84 0 127 -50.5t43 -150.5v-26h47q198 0 293.5 -85t95.5 -261v-287q0 -187 -99.5 -265.5t-336.5 -81.5v-67q0 -124 -39.5 -176.5t-130.5 -52.5q-92 0 -132 52.5t-40 176.5zM193 662q0 -116 36.5 -163.5t122.5 -47.5q87 0 124.5 44.5 t37.5 153.5v234q0 123 -37.5 175t-124.5 52q-86 0 -122.5 -47.5t-36.5 -167.5v-233z" />
<glyph unicode="&#xdf;" horiz-adv-x="985" d="M61 219v909q0 113 18 165.5t60 95.5q48 48 131.5 76t180.5 28q170 0 279.5 -82.5t109.5 -206.5q0 -33 -11 -66.5t-30 -60.5l-54 -76q-18 -26 -26 -40.5t-8 -20.5q0 -14 7.5 -29t22.5 -30l107 -103q41 -40 58.5 -80.5t17.5 -115.5v-328q0 -128 -64.5 -196t-185.5 -68h-156 q-46 0 -65 15t-19 50t19 49.5t65 14.5h115q91 0 130.5 32.5t39.5 106.5q0 67 -66 143l-2 3l-229 268q-27 32 -39 55t-12 43q0 21 10.5 47t30.5 51l145 185q46 59 61 90.5t15 62.5q0 61 -49.5 105.5t-116.5 44.5q-66 0 -107 -49.5t-41 -130.5v-957q0 -123 -40.5 -176 t-131.5 -53t-130.5 52.5t-39.5 176.5z" />
<glyph unicode="&#xe0;" horiz-adv-x="879" d="M43 303q0 124 77 202.5t197 78.5h211q84 0 135.5 43t51.5 112q0 80 -48 132.5t-120 52.5q-62 0 -100 -30.5t-72 -115.5q-32 -79 -71 -108t-103 -29q-63 0 -105.5 48.5t-42.5 121.5q0 102 111 177t272 75q194 0 291.5 -92t97.5 -275v-340q0 -183 -97 -274.5t-292 -91.5 q-185 0 -289 83t-104 230zM164 301q0 -68 44.5 -111t113.5 -43q75 0 118 44t43 122v156h-145q-78 0 -126 -46t-48 -122zM213 1427q0 30 26 52t60 22t70 -39l1 -1l166 -197q11 -13 17 -27.5t6 -28.5q0 -29 -20 -50t-48 -21q-25 0 -61 33q-6 5 -9 8l-174 172 q-15 15 -24.5 36.5t-9.5 40.5z" />
<glyph unicode="&#xe1;" horiz-adv-x="879" d="M43 303q0 124 77 202.5t197 78.5h211q84 0 135.5 43t51.5 112q0 80 -48 132.5t-120 52.5q-62 0 -100 -30.5t-72 -115.5q-32 -79 -71 -108t-103 -29q-63 0 -105.5 48.5t-42.5 121.5q0 102 111 177t272 75q194 0 291.5 -92t97.5 -275v-340q0 -183 -97 -274.5t-292 -91.5 q-185 0 -289 83t-104 230zM164 301q0 -68 44.5 -111t113.5 -43q75 0 118 44t43 122v156h-145q-78 0 -126 -46t-48 -122zM315 1208q0 14 6 28.5t17 27.5l166 197l1 1q36 39 70 39t60 -22t26 -52q0 -19 -9.5 -40.5t-25.5 -36.5l-173 -172q-4 -3 -9 -8q-36 -33 -61 -33 q-28 0 -48 21t-20 50z" />
<glyph unicode="&#xe2;" horiz-adv-x="879" d="M43 303q0 124 77 202.5t197 78.5h211q84 0 135.5 43t51.5 112q0 80 -48 132.5t-120 52.5q-62 0 -100 -30.5t-72 -115.5q-32 -79 -71 -108t-103 -29q-63 0 -105.5 48.5t-42.5 121.5q0 102 111 177t272 75q194 0 291.5 -92t97.5 -275v-340q0 -183 -97 -274.5t-292 -91.5 q-185 0 -289 83t-104 230zM137 1200q0 17 12 36t33 36l186 141q15 12 33.5 18.5t38.5 6.5t38.5 -6.5t33.5 -18.5l186 -141q21 -17 33 -36t12 -36q0 -26 -19.5 -44.5t-45.5 -18.5q-14 0 -30 5t-30 15l-178 113l-180 -113q-14 -10 -29 -15t-29 -5q-26 0 -45.5 18.5t-19.5 44.5 zM164 301q0 -68 44.5 -111t113.5 -43q75 0 118 44t43 122v156h-145q-78 0 -126 -46t-48 -122z" />
<glyph unicode="&#xe3;" horiz-adv-x="879" d="M43 303q0 124 77 202.5t197 78.5h211q84 0 135.5 43t51.5 112q0 80 -48 132.5t-120 52.5q-62 0 -100 -30.5t-72 -115.5q-32 -79 -71 -108t-103 -29q-63 0 -105.5 48.5t-42.5 121.5q0 102 111 177t272 75q194 0 291.5 -92t97.5 -275v-340q0 -183 -97 -274.5t-292 -91.5 q-185 0 -289 83t-104 230zM164 301q0 -68 44.5 -111t113.5 -43q75 0 118 44t43 122v156h-145q-78 0 -126 -46t-48 -122zM198 1221q0 56 43 92.5t111 36.5q33 0 87 -16.5t77 -16.5q26 0 62.5 16.5t51.5 16.5q26 0 39 -13.5t13 -40.5q0 -57 -42.5 -94t-109.5 -37 q-33 0 -88 17.5t-78 17.5q-26 0 -62.5 -17.5t-51.5 -17.5q-26 0 -39 14t-13 42z" />
<glyph unicode="&#xe4;" horiz-adv-x="879" d="M43 303q0 124 77 202.5t197 78.5h211q84 0 135.5 43t51.5 112q0 80 -48 132.5t-120 52.5q-62 0 -100 -30.5t-72 -115.5q-32 -79 -71 -108t-103 -29q-63 0 -105.5 48.5t-42.5 121.5q0 102 111 177t272 75q194 0 291.5 -92t97.5 -275v-340q0 -183 -97 -274.5t-292 -91.5 q-185 0 -289 83t-104 230zM164 301q0 -68 44.5 -111t113.5 -43q75 0 118 44t43 122v156h-145q-78 0 -126 -46t-48 -122zM225 1260q0 53 23 82.5t65 29.5q44 0 66 -28.5t22 -83.5q0 -54 -22.5 -82.5t-65.5 -28.5q-41 0 -64.5 29.5t-23.5 81.5zM479 1260q0 52 24 82t66 30 q43 0 64.5 -28t21.5 -84q0 -55 -22 -83t-64 -28q-41 0 -65.5 30t-24.5 81z" />
<glyph unicode="&#xe5;" horiz-adv-x="879" d="M43 303q0 124 77 202.5t197 78.5h211q84 0 135.5 43t51.5 112q0 80 -48 132.5t-120 52.5q-62 0 -100 -30.5t-72 -115.5q-32 -79 -71 -108t-103 -29q-63 0 -105.5 48.5t-42.5 121.5q0 102 111 177t272 75q194 0 291.5 -92t97.5 -275v-340q0 -183 -97 -274.5t-292 -91.5 q-185 0 -289 83t-104 230zM164 301q0 -68 44.5 -111t113.5 -43q75 0 118 44t43 122v156h-145q-78 0 -126 -46t-48 -122zM242 1319q0 79 56.5 134.5t135.5 55.5q80 0 136.5 -55.5t56.5 -134.5q0 -81 -56 -137t-137 -56q-80 0 -136 56.5t-56 136.5zM352 1319q0 -32 25 -57 t57 -25q33 0 57.5 24.5t24.5 57.5q0 34 -24 58t-58 24t-58 -24t-24 -58z" />
<glyph unicode="&#xe6;" horiz-adv-x="1432" d="M43 303q0 124 77 202.5t197 78.5h211q84 0 135.5 43t51.5 112q0 80 -48 132.5t-120 52.5q-62 0 -100 -30.5t-72 -115.5q-32 -79 -71 -108t-103 -29q-63 0 -105.5 48.5t-42.5 121.5q0 102 111 177t272 75q82 0 148.5 -19t128.5 -59q67 40 135 59t147 19q186 0 290 -83 t104 -230q0 -125 -77.5 -203t-197.5 -78h-211q-84 0 -135 -43t-51 -113q0 -80 48 -133t120 -53q61 0 99 30.5t73 116.5q31 78 70 107t104 29q63 0 105 -48t42 -120q0 -102 -111 -177t-272 -75q-82 0 -147.5 19t-128.5 61q-67 -42 -134.5 -61t-148.5 -19q-185 0 -289 83 t-104 230zM164 301q0 -68 44.5 -111t113.5 -43q75 0 118 44t43 122v156h-145q-78 0 -126 -46t-48 -122zM948 584h146q78 0 126 46t48 122q0 67 -44.5 110t-113.5 43q-76 0 -119 -44t-43 -122v-155z" />
<glyph unicode="&#xe7;" horiz-adv-x="834" d="M47 356v340q0 184 97.5 275.5t291.5 91.5q165 0 274 -74.5t109 -185.5q0 -72 -47.5 -116t-124.5 -44q-57 0 -95 25t-60 77q-4 9 -10 23q-58 139 -160 139q-86 0 -123 -47t-37 -168v-334q0 -119 36.5 -166t123.5 -47q102 0 160 140q6 14 10 23q22 51 60 76.5t95 25.5 q77 0 124.5 -44t47.5 -116q0 -111 -109 -185.5t-274 -74.5q-194 0 -291.5 91.5t-97.5 274.5zM217 -293q0 22 16.5 38.5t38.5 16.5q18 0 65.5 -28.5t82.5 -28.5q33 0 50 16t17 48q0 34 -17 51.5t-50 17.5q-15 0 -38 -8t-34 -8q-25 0 -43 12t-18 27q0 4 6 17t16 28l70 108h102 l-57 -96q5 1 13 2q39 6 52 6q70 0 110 -40t40 -109q0 -86 -62 -135.5t-170 -49.5q-82 0 -136 33t-54 82z" />
<glyph unicode="&#xe8;" horiz-adv-x="872" d="M47 356v340q0 184 97.5 275.5t291.5 91.5q186 0 289.5 -83t103.5 -230q0 -125 -77 -203t-197 -78h-211q-84 0 -135 -43t-51 -113q0 -80 48 -133t120 -53q61 0 99 30.5t73 116.5q31 78 70 107t104 29q62 0 104.5 -48t42.5 -120q0 -103 -111.5 -177.5t-273.5 -74.5 q-193 0 -290 91.5t-97 274.5zM209 1427q0 30 26 52t60 22t70 -39l1 -1l166 -197q11 -13 17 -27.5t6 -28.5q0 -29 -20 -50t-48 -21q-25 0 -61 33q-6 5 -9 8l-174 172q-15 15 -24.5 36.5t-9.5 40.5zM389 584h146q77 0 124.5 46t47.5 122q0 68 -43.5 110.5t-112.5 42.5 q-76 0 -119 -44t-43 -122v-155z" />
<glyph unicode="&#xe9;" horiz-adv-x="872" d="M47 356v340q0 184 97.5 275.5t291.5 91.5q186 0 289.5 -83t103.5 -230q0 -125 -77 -203t-197 -78h-211q-84 0 -135 -43t-51 -113q0 -80 48 -133t120 -53q61 0 99 30.5t73 116.5q31 78 70 107t104 29q62 0 104.5 -48t42.5 -120q0 -103 -111.5 -177.5t-273.5 -74.5 q-193 0 -290 91.5t-97 274.5zM311 1208q0 14 6 28.5t17 27.5l166 197l1 1q36 39 70 39t60 -22t26 -52q0 -19 -9.5 -40.5t-25.5 -36.5l-173 -172q-4 -3 -9 -8q-36 -33 -61 -33q-28 0 -48 21t-20 50zM389 584h146q77 0 124.5 46t47.5 122q0 68 -43.5 110.5t-112.5 42.5 q-76 0 -119 -44t-43 -122v-155z" />
<glyph unicode="&#xea;" horiz-adv-x="872" d="M47 356v340q0 184 97.5 275.5t291.5 91.5q186 0 289.5 -83t103.5 -230q0 -125 -77 -203t-197 -78h-211q-84 0 -135 -43t-51 -113q0 -80 48 -133t120 -53q61 0 99 30.5t73 116.5q31 78 70 107t104 29q62 0 104.5 -48t42.5 -120q0 -103 -111.5 -177.5t-273.5 -74.5 q-193 0 -290 91.5t-97 274.5zM133 1200q0 17 12 36t33 36l186 141q15 12 33.5 18.5t38.5 6.5t38.5 -6.5t33.5 -18.5l186 -141q21 -17 33 -36t12 -36q0 -26 -19.5 -44.5t-45.5 -18.5q-14 0 -30 5t-30 15l-178 113l-180 -113q-14 -10 -29 -15t-29 -5q-26 0 -45.5 18.5 t-19.5 44.5zM389 584h146q77 0 124.5 46t47.5 122q0 68 -43.5 110.5t-112.5 42.5q-76 0 -119 -44t-43 -122v-155z" />
<glyph unicode="&#xeb;" horiz-adv-x="872" d="M47 356v340q0 184 97.5 275.5t291.5 91.5q186 0 289.5 -83t103.5 -230q0 -125 -77 -203t-197 -78h-211q-84 0 -135 -43t-51 -113q0 -80 48 -133t120 -53q61 0 99 30.5t73 116.5q31 78 70 107t104 29q62 0 104.5 -48t42.5 -120q0 -103 -111.5 -177.5t-273.5 -74.5 q-193 0 -290 91.5t-97 274.5zM221 1260q0 53 23 82.5t65 29.5q44 0 66 -28.5t22 -83.5q0 -54 -22.5 -82.5t-65.5 -28.5q-41 0 -64.5 29.5t-23.5 81.5zM389 584h146q77 0 124.5 46t47.5 122q0 68 -43.5 110.5t-112.5 42.5q-76 0 -119 -44t-43 -122v-155zM475 1260q0 52 24 82 t66 30q43 0 64.5 -28t21.5 -84q0 -55 -22 -83t-64 -28q-41 0 -65.5 30t-24.5 81z" />
<glyph unicode="&#xec;" horiz-adv-x="465" d="M6 1427q0 30 26 52t60 22t70 -39l1 -1l166 -197q11 -13 17 -27.5t6 -28.5q0 -29 -20 -50t-48 -21q-25 0 -61 33q-6 5 -9 8l-174 172q-15 15 -24.5 36.5t-9.5 40.5zM61 219v615q0 124 39.5 176.5t130.5 52.5t131.5 -53t40.5 -176v-615q0 -124 -40 -176.5t-132 -52.5 q-90 0 -130 52.5t-40 176.5z" />
<glyph unicode="&#xed;" horiz-adv-x="465" d="M61 219v615q0 124 39.5 176.5t130.5 52.5t131.5 -53t40.5 -176v-615q0 -124 -40 -176.5t-132 -52.5q-90 0 -130 52.5t-40 176.5zM108 1208q0 14 6 28.5t17 27.5l166 197l1 1q36 39 70 39t60 -22t26 -52q0 -19 -9.5 -40.5t-25.5 -36.5l-173 -172q-4 -3 -9 -8 q-36 -33 -61 -33q-28 0 -48 21t-20 50z" />
<glyph unicode="&#xee;" horiz-adv-x="465" d="M-70 1200q0 17 12 36t33 36l186 141q15 12 33.5 18.5t38.5 6.5t38.5 -6.5t33.5 -18.5l186 -141q21 -17 33 -36t12 -36q0 -26 -19.5 -44.5t-45.5 -18.5q-14 0 -30 5t-30 15l-178 113l-180 -113q-14 -10 -29 -15t-29 -5q-26 0 -45.5 18.5t-19.5 44.5zM61 219v615 q0 124 39.5 176.5t130.5 52.5t131.5 -53t40.5 -176v-615q0 -124 -40 -176.5t-132 -52.5q-90 0 -130 52.5t-40 176.5z" />
<glyph unicode="&#xef;" horiz-adv-x="465" d="M18 1260q0 53 23 82.5t65 29.5q44 0 66 -28.5t22 -83.5q0 -54 -22.5 -82.5t-65.5 -28.5q-41 0 -64.5 29.5t-23.5 81.5zM61 219v615q0 124 39.5 176.5t130.5 52.5t131.5 -53t40.5 -176v-615q0 -124 -40 -176.5t-132 -52.5q-90 0 -130 52.5t-40 176.5zM272 1260q0 52 24 82 t66 30q43 0 64.5 -28t21.5 -84q0 -55 -22 -83t-64 -28q-41 0 -65.5 30t-24.5 81z" />
<glyph unicode="&#xf0;" horiz-adv-x="872" d="M47 336v328q0 103 18 153.5t62 91.5q50 47 132 74t177 27q52 0 102 -9.5t103 -29.5q-33 67 -66 122.5t-67 102.5l-152 -68q-11 -5 -20.5 -8.5t-13.5 -3.5q-17 0 -29 12t-12 29q0 16 8 25.5t37 21.5l133 60q-29 39 -78 95.5t-49 76.5q0 18 14.5 32.5t34.5 14.5 q36 0 120 -103q36 -44 58 -69l150 65q9 4 17 6t15 2q19 0 31 -11t12 -27t-8 -26t-33 -22l-135 -57q111 -145 164 -291.5t53 -306.5v-287q0 -183 -97 -274.5t-292 -91.5q-95 0 -177 26.5t-132 73.5q-44 41 -62 91.5t-18 154.5zM389 354q0 -110 37.5 -154t124.5 -44 q86 0 123 46.5t37 162.5v274q0 116 -37.5 165.5t-122.5 49.5q-87 0 -124.5 -52t-37.5 -175v-273z" />
<glyph unicode="&#xf1;" d="M61 219v428v39q0 102 19 156.5t61 101.5q54 60 133 89.5t185 29.5q88 0 158 -23t122 -69q59 -51 84 -114.5t25 -209.5v-428q0 -124 -39.5 -176.5t-130.5 -52.5t-130.5 52.5t-39.5 176.5v436q0 144 -36.5 198t-123.5 54q-71 0 -115.5 -46.5t-44.5 -121.5q0 -87 102 -144 q36 -19 54 -32q32 -22 45.5 -61t13.5 -121v-162q0 -124 -40 -176.5t-132 -52.5q-90 0 -130 52.5t-40 176.5zM213 1221q0 56 43 92.5t111 36.5q33 0 87 -16.5t77 -16.5q26 0 62.5 16.5t51.5 16.5q26 0 39 -13.5t13 -40.5q0 -57 -42.5 -94t-109.5 -37q-33 0 -88 17.5t-78 17.5 q-26 0 -62.5 -17.5t-51.5 -17.5q-26 0 -39 14t-13 42z" />
<glyph unicode="&#xf2;" horiz-adv-x="872" d="M47 336v381q0 102 18 152t62 92q49 47 131.5 74.5t177.5 27.5q195 0 292 -91.5t97 -275.5v-340q0 -183 -97 -274.5t-292 -91.5q-96 0 -178.5 27t-130.5 73q-44 41 -62 91.5t-18 154.5zM209 1427q0 30 26 52t60 22t70 -39l1 -1l166 -197q11 -13 17 -27.5t6 -28.5 q0 -29 -20 -50t-48 -21q-25 0 -61 33q-6 5 -9 8l-174 172q-15 15 -24.5 36.5t-9.5 40.5zM389 354q0 -110 37.5 -154t124.5 -44q86 0 123 47.5t37 161.5v327q0 121 -37 168t-123 47q-87 0 -124.5 -52t-37.5 -175v-326z" />
<glyph unicode="&#xf3;" horiz-adv-x="872" d="M47 336v381q0 102 18 152t62 92q49 47 131.5 74.5t177.5 27.5q195 0 292 -91.5t97 -275.5v-340q0 -183 -97 -274.5t-292 -91.5q-96 0 -178.5 27t-130.5 73q-44 41 -62 91.5t-18 154.5zM311 1208q0 14 6 28.5t17 27.5l166 197l1 1q36 39 70 39t60 -22t26 -52 q0 -19 -9.5 -40.5t-25.5 -36.5l-173 -172q-4 -3 -9 -8q-36 -33 -61 -33q-28 0 -48 21t-20 50zM389 354q0 -110 37.5 -154t124.5 -44q86 0 123 47.5t37 161.5v327q0 121 -37 168t-123 47q-87 0 -124.5 -52t-37.5 -175v-326z" />
<glyph unicode="&#xf4;" horiz-adv-x="872" d="M47 336v381q0 102 18 152t62 92q49 47 131.5 74.5t177.5 27.5q195 0 292 -91.5t97 -275.5v-340q0 -183 -97 -274.5t-292 -91.5q-96 0 -178.5 27t-130.5 73q-44 41 -62 91.5t-18 154.5zM133 1200q0 17 12 36t33 36l186 141q15 12 33.5 18.5t38.5 6.5t38.5 -6.5t33.5 -18.5 l186 -141q21 -17 33 -36t12 -36q0 -26 -19.5 -44.5t-45.5 -18.5q-14 0 -30 5t-30 15l-178 113l-180 -113q-14 -10 -29 -15t-29 -5q-26 0 -45.5 18.5t-19.5 44.5zM389 354q0 -110 37.5 -154t124.5 -44q86 0 123 47.5t37 161.5v327q0 121 -37 168t-123 47q-87 0 -124.5 -52 t-37.5 -175v-326z" />
<glyph unicode="&#xf5;" horiz-adv-x="872" d="M47 336v381q0 102 18 152t62 92q49 47 131.5 74.5t177.5 27.5q195 0 292 -91.5t97 -275.5v-340q0 -183 -97 -274.5t-292 -91.5q-96 0 -178.5 27t-130.5 73q-44 41 -62 91.5t-18 154.5zM194 1221q0 56 43 92.5t111 36.5q33 0 87 -16.5t77 -16.5q26 0 62.5 16.5t51.5 16.5 q26 0 39 -13.5t13 -40.5q0 -57 -42.5 -94t-109.5 -37q-33 0 -88 17.5t-78 17.5q-26 0 -62.5 -17.5t-51.5 -17.5q-26 0 -39 14t-13 42zM389 354q0 -110 37.5 -154t124.5 -44q86 0 123 47.5t37 161.5v327q0 121 -37 168t-123 47q-87 0 -124.5 -52t-37.5 -175v-326z" />
<glyph unicode="&#xf6;" horiz-adv-x="872" d="M47 336v381q0 102 18 152t62 92q49 47 131.5 74.5t177.5 27.5q195 0 292 -91.5t97 -275.5v-340q0 -183 -97 -274.5t-292 -91.5q-96 0 -178.5 27t-130.5 73q-44 41 -62 91.5t-18 154.5zM221 1260q0 53 23 82.5t65 29.5q44 0 66 -28.5t22 -83.5q0 -54 -22.5 -82.5 t-65.5 -28.5q-41 0 -64.5 29.5t-23.5 81.5zM389 354q0 -110 37.5 -154t124.5 -44q86 0 123 47.5t37 161.5v327q0 121 -37 168t-123 47q-87 0 -124.5 -52t-37.5 -175v-326zM475 1260q0 52 24 82t66 30q43 0 64.5 -28t21.5 -84q0 -55 -22 -83t-64 -28q-41 0 -65.5 30t-24.5 81 z" />
<glyph unicode="&#xf7;" horiz-adv-x="1706" d="M254 512v199h1198v-199h-1198zM702 217q0 63 44.5 107.5t107.5 44.5q62 0 107 -45t45 -107q0 -61 -45 -105t-107 -44q-63 0 -107.5 43t-44.5 106zM702 1004q0 63 44.5 107t107.5 44q62 0 107 -44.5t45 -106.5q0 -63 -44.5 -107.5t-107.5 -44.5t-107.5 44.5t-44.5 107.5z " />
<glyph unicode="&#xf8;" horiz-adv-x="872" d="M4 37q0 10 8 25.5t21 29.5l47 55q-18 32 -25.5 71.5t-7.5 117.5v381q0 102 18 152t62 92q49 47 131.5 74.5t177.5 27.5q87 0 157 -21.5t132 -66.5l37 47q2 3 6 7q27 34 45 34q22 0 33.5 -12t11.5 -35q0 -11 -7 -26.5t-20 -28.5l-49 -56q23 -43 33 -87t10 -122v-340 q0 -183 -97 -274.5t-292 -91.5q-84 0 -158 22t-139 66l-39 -48q-1 -1 -5 -6q-28 -34 -46 -34q-22 0 -33.5 12t-11.5 35zM389 354q0 -110 37.5 -154t124.5 -44q86 0 123 47.5t37 161.5v436l-322 -391v-56zM389 555l262 322q-22 16 -44.5 23t-55.5 7q-87 0 -124.5 -52 t-37.5 -175v-125z" />
<glyph unicode="&#xf9;" d="M61 377v29v428q0 124 39.5 176.5t130.5 52.5t131.5 -53t40.5 -176v-437q0 -143 37 -197.5t123 -54.5q71 0 115.5 46.5t44.5 121.5q0 86 -101 141q-37 20 -57 33q-31 22 -44 60.5t-13 124.5v162q0 124 39.5 176.5t130.5 52.5q90 0 130 -53t40 -176v-428v-46 q0 -79 -12.5 -126.5t-40.5 -90.5q-51 -77 -136.5 -115t-205.5 -38q-102 0 -180.5 30t-131.5 89q-42 49 -61 105.5t-19 162.5zM228 1427q0 30 26 52t60 22t70 -39l1 -1l166 -197q11 -13 17 -27.5t6 -28.5q0 -29 -20 -50t-48 -21q-25 0 -61 33q-6 5 -9 8l-174 172 q-15 15 -24.5 36.5t-9.5 40.5z" />
<glyph unicode="&#xfa;" d="M61 377v29v428q0 124 39.5 176.5t130.5 52.5t131.5 -53t40.5 -176v-437q0 -143 37 -197.5t123 -54.5q71 0 115.5 46.5t44.5 121.5q0 86 -101 141q-37 20 -57 33q-31 22 -44 60.5t-13 124.5v162q0 124 39.5 176.5t130.5 52.5q90 0 130 -53t40 -176v-428v-46 q0 -79 -12.5 -126.5t-40.5 -90.5q-51 -77 -136.5 -115t-205.5 -38q-102 0 -180.5 30t-131.5 89q-42 49 -61 105.5t-19 162.5zM330 1208q0 14 6 28.5t17 27.5l166 197l1 1q36 39 70 39t60 -22t26 -52q0 -19 -9.5 -40.5t-25.5 -36.5l-173 -172q-4 -3 -9 -8q-36 -33 -61 -33 q-28 0 -48 21t-20 50z" />
<glyph unicode="&#xfb;" d="M61 377v29v428q0 124 39.5 176.5t130.5 52.5t131.5 -53t40.5 -176v-437q0 -143 37 -197.5t123 -54.5q71 0 115.5 46.5t44.5 121.5q0 86 -101 141q-37 20 -57 33q-31 22 -44 60.5t-13 124.5v162q0 124 39.5 176.5t130.5 52.5q90 0 130 -53t40 -176v-428v-46 q0 -79 -12.5 -126.5t-40.5 -90.5q-51 -77 -136.5 -115t-205.5 -38q-102 0 -180.5 30t-131.5 89q-42 49 -61 105.5t-19 162.5zM152 1200q0 17 12 36t33 36l186 141q15 12 33.5 18.5t38.5 6.5t38.5 -6.5t33.5 -18.5l186 -141q21 -17 33 -36t12 -36q0 -26 -19.5 -44.5 t-45.5 -18.5q-14 0 -30 5t-30 15l-178 113l-180 -113q-14 -10 -29 -15t-29 -5q-26 0 -45.5 18.5t-19.5 44.5z" />
<glyph unicode="&#xfc;" d="M61 377v29v428q0 124 39.5 176.5t130.5 52.5t131.5 -53t40.5 -176v-437q0 -143 37 -197.5t123 -54.5q71 0 115.5 46.5t44.5 121.5q0 86 -101 141q-37 20 -57 33q-31 22 -44 60.5t-13 124.5v162q0 124 39.5 176.5t130.5 52.5q90 0 130 -53t40 -176v-428v-46 q0 -79 -12.5 -126.5t-40.5 -90.5q-51 -77 -136.5 -115t-205.5 -38q-102 0 -180.5 30t-131.5 89q-42 49 -61 105.5t-19 162.5zM240 1260q0 53 23 82.5t65 29.5q44 0 66 -28.5t22 -83.5q0 -54 -22.5 -82.5t-65.5 -28.5q-41 0 -64.5 29.5t-23.5 81.5zM494 1260q0 52 24 82 t66 30q43 0 64.5 -28t21.5 -84q0 -55 -22 -83t-64 -28q-41 0 -65.5 30t-24.5 81z" />
<glyph unicode="&#xfd;" horiz-adv-x="930" d="M-27 -154q0 78 43.5 123.5t125.5 53.5q14 1 44 3q70 3 99 21q31 20 51 56.5t20 72.5q0 22 -7.5 46.5t-22.5 53.5l-262 483l-2 3q-52 93 -52 147q0 62 54 109t122 47q50 0 87 -30t81 -113l160 -297l2 -4q26 -46 51 -46q19 0 32.5 11t29.5 39l213 387q16 28 30.5 40.5 t30.5 12.5q23 0 43.5 -19t20.5 -42q0 -15 -15 -42q-4 -7 -6 -12l-629 -1134q-45 -81 -85 -110.5t-97 -29.5q-70 0 -116 48t-46 122zM340 1208q0 14 6 28.5t17 27.5l166 197l1 1q36 39 70 39t60 -22t26 -52q0 -19 -9.5 -40.5t-25.5 -36.5l-173 -172q-4 -3 -9 -8 q-36 -33 -61 -33q-28 0 -48 21t-20 50z" />
<glyph unicode="&#xfe;" horiz-adv-x="901" d="M61 -94v1360q0 123 40 175t130 52q92 0 132 -52.5t40 -174.5v-203h48q94 0 177 -27.5t132 -74.5q43 -42 61.5 -92t18.5 -152v-381q0 -187 -99.5 -265t-336.5 -81l-1 -84q0 -121 -40.5 -174.5t-131.5 -53.5t-130.5 51.5t-39.5 176.5zM176 365q0 -116 36.5 -162.5 t123.5 -46.5t124.5 44.5t37.5 153.5v326q0 123 -38 175t-124 52t-123 -47t-37 -168v-327z" />
<glyph unicode="&#xff;" horiz-adv-x="930" d="M-27 -154q0 78 43.5 123.5t125.5 53.5q14 1 44 3q70 3 99 21q31 20 51 56.5t20 72.5q0 22 -7.5 46.5t-22.5 53.5l-262 483l-2 3q-52 93 -52 147q0 62 54 109t122 47q50 0 87 -30t81 -113l160 -297l2 -4q26 -46 51 -46q19 0 32.5 11t29.5 39l213 387q16 28 30.5 40.5 t30.5 12.5q23 0 43.5 -19t20.5 -42q0 -15 -15 -42q-4 -7 -6 -12l-629 -1134q-45 -81 -85 -110.5t-97 -29.5q-70 0 -116 48t-46 122zM250 1260q0 53 23 82.5t65 29.5q44 0 66 -28.5t22 -83.5q0 -54 -22.5 -82.5t-65.5 -28.5q-41 0 -64.5 29.5t-23.5 81.5zM504 1260 q0 52 24 82t66 30q43 0 64.5 -28t21.5 -84q0 -55 -22 -83t-64 -28q-41 0 -65.5 30t-24.5 81z" />
<glyph unicode="&#x152;" horiz-adv-x="1518" d="M74 289v22v883q0 80 18 123t60 84q49 46 125.5 69t181.5 23q87 0 158.5 -23t127.5 -69q26 40 68 62t94 22h467q45 0 63.5 -13.5t18.5 -46.5q0 -31 -18.5 -45t-63.5 -14h-211q-57 0 -73.5 -16t-16.5 -74v-387q0 -58 16.5 -74t73.5 -16h211q45 0 63.5 -13.5t18.5 -46.5 q0 -32 -18.5 -45.5t-63.5 -13.5h-211q-57 0 -73.5 -16t-16.5 -74v-268q0 -106 42 -150.5t142 -44.5h193q46 0 64 -14.5t18 -49.5q0 -34 -18 -48.5t-64 -14.5h-543q-50 0 -89.5 20t-74.5 62q-57 -47 -129 -69.5t-165 -22.5q-95 0 -172 24.5t-125 69.5q-42 39 -60 82t-18 123z M401 348q0 -111 37 -154.5t123 -43.5t124 48.5t38 161.5v777q0 113 -38 162t-124 49t-123 -44t-37 -155v-801z" />
<glyph unicode="&#x153;" horiz-adv-x="1536" d="M47 336v381q0 102 18 152t62 92q51 47 133 74.5t176 27.5q95 0 171.5 -27t152.5 -88q94 63 172.5 89t167.5 26q185 0 289 -83t104 -230q0 -125 -77 -203t-197 -78h-211q-84 0 -135.5 -43t-51.5 -113q0 -80 48.5 -133t119.5 -53q62 0 100 30.5t72 116.5q31 78 70.5 107 t103.5 29q63 0 105.5 -48t42.5 -120q0 -102 -111 -177t-272 -75q-100 0 -179.5 29.5t-160.5 97.5q-77 -70 -149.5 -98.5t-174.5 -28.5q-95 0 -177 26.5t-132 73.5q-44 41 -62 91.5t-18 154.5zM389 354q0 -110 37.5 -154t124.5 -44q86 0 123 47.5t37 161.5v327q0 121 -37 168 t-123 47q-87 0 -124.5 -52t-37.5 -175v-326zM1053 584h145q78 0 126 46t48 122q0 68 -44.5 111.5t-113.5 43.5q-75 0 -118 -44.5t-43 -123.5v-155z" />
<glyph unicode="&#x178;" horiz-adv-x="834" d="M10 1335q0 71 49.5 114.5t128.5 43.5q58 0 95 -37t71 -135l103 -295q18 -50 31.5 -66t33.5 -16t34 16t32 66l139 397q12 35 25 48.5t32 13.5q28 0 45 -15.5t17 -42.5q0 -4 -2.5 -13t-9.5 -29l-236 -662q-12 -33 -18.5 -63t-6.5 -56q0 -8 1 -18t1 -11v-356 q0 -124 -39 -176.5t-130 -52.5t-130.5 52.5t-39.5 176.5v356q0 1 1 11t1 18q0 26 -6.5 56t-18.5 63l-174 489q-16 46 -22.5 74t-6.5 49zM203 1692q0 53 23 82.5t65 29.5q44 0 66 -28.5t22 -83.5q0 -54 -22.5 -82.5t-65.5 -28.5q-41 0 -64.5 29.5t-23.5 81.5zM457 1692 q0 52 24 82t66 30q43 0 64.5 -28t21.5 -84q0 -55 -22 -83t-64 -28q-41 0 -65.5 30t-24.5 81z" />
<glyph unicode="&#x2c6;" horiz-adv-x="1024" d="M209 1200q0 17 12 36t33 36l186 141q15 12 33.5 18.5t38.5 6.5t38.5 -6.5t33.5 -18.5l186 -141q21 -17 33 -36t12 -36q0 -26 -19.5 -44.5t-45.5 -18.5q-14 0 -30 5t-30 15l-178 113l-180 -113q-14 -10 -29 -15t-29 -5q-26 0 -45.5 18.5t-19.5 44.5z" />
<glyph unicode="&#x2dc;" horiz-adv-x="1024" d="M270 1221q0 56 43 92.5t111 36.5q33 0 87 -16.5t77 -16.5q26 0 62.5 16.5t51.5 16.5q26 0 39 -13.5t13 -40.5q0 -57 -42.5 -94t-109.5 -37q-33 0 -88 17.5t-78 17.5q-26 0 -62.5 -17.5t-51.5 -17.5q-26 0 -39 14t-13 42z" />
<glyph unicode="&#x2000;" horiz-adv-x="966" />
<glyph unicode="&#x2001;" horiz-adv-x="1933" />
<glyph unicode="&#x2002;" horiz-adv-x="966" />
<glyph unicode="&#x2003;" horiz-adv-x="1933" />
<glyph unicode="&#x2004;" horiz-adv-x="644" />
<glyph unicode="&#x2005;" horiz-adv-x="483" />
<glyph unicode="&#x2006;" horiz-adv-x="322" />
<glyph unicode="&#x2007;" horiz-adv-x="322" />
<glyph unicode="&#x2008;" horiz-adv-x="241" />
<glyph unicode="&#x2009;" horiz-adv-x="386" />
<glyph unicode="&#x200a;" horiz-adv-x="107" />
<glyph unicode="&#x2010;" horiz-adv-x="645" d="M47 524q0 35 19 50.5t65 15.5h383q46 0 65 -14.5t19 -49.5t-19 -50t-65 -15h-383q-46 0 -65 14.5t-19 48.5z" />
<glyph unicode="&#x2011;" horiz-adv-x="645" d="M47 524q0 35 19 50.5t65 15.5h383q46 0 65 -14.5t19 -49.5t-19 -50t-65 -15h-383q-46 0 -65 14.5t-19 48.5z" />
<glyph unicode="&#x2012;" horiz-adv-x="645" d="M47 524q0 35 19 50.5t65 15.5h383q46 0 65 -14.5t19 -49.5t-19 -50t-65 -15h-383q-46 0 -65 14.5t-19 48.5z" />
<glyph unicode="&#x2013;" horiz-adv-x="1024" d="M0 524q0 35 19 50.5t65 15.5h856q46 0 65 -14.5t19 -49.5t-19 -50t-65 -15h-856q-46 0 -65 14.5t-19 48.5z" />
<glyph unicode="&#x2014;" horiz-adv-x="2048" d="M0 461v129h2048v-129h-2048z" />
<glyph unicode="&#x2018;" horiz-adv-x="455" d="M39 1182q0 121 70.5 216t138.5 95q29 0 48 -19.5t19 -50.5q0 -45 -65 -64l-4 -1q-26 -7 -37.5 -19.5t-11.5 -31.5q0 -41 75 -55q31 -6 48 -11q47 -14 72.5 -52t25.5 -95q0 -79 -43 -124.5t-117 -45.5q-97 0 -158 71t-61 187z" />
<glyph unicode="&#x2019;" horiz-adv-x="455" d="M37 1323q0 79 43 125.5t117 46.5q97 0 158 -72t61 -188q0 -121 -70.5 -216t-138.5 -95q-29 0 -48.5 20t-19.5 51q0 46 67 65l3 1q26 7 37.5 18.5t11.5 30.5q0 41 -76 55q-31 6 -46 10q-48 15 -73.5 53t-25.5 95z" />
<glyph unicode="&#x201a;" horiz-adv-x="455" d="M37 145q0 79 43 124.5t117 45.5q97 0 158 -71t61 -187q0 -121 -70.5 -216t-138.5 -95q-30 0 -49 19.5t-19 50.5q0 45 66 64l3 1q26 7 38 19.5t12 31.5q0 41 -76 55q-30 6 -47 11q-47 14 -72.5 52t-25.5 95z" />
<glyph unicode="&#x201c;" horiz-adv-x="920" d="M39 1182q0 121 70.5 216t138.5 95q29 0 48 -19.5t19 -50.5q0 -45 -65 -64l-4 -1q-26 -7 -37.5 -19.5t-11.5 -31.5q0 -41 75 -55q31 -6 48 -11q47 -14 72.5 -52t25.5 -95q0 -79 -43 -124.5t-117 -45.5q-97 0 -158 71t-61 187zM504 1182q0 121 70.5 216t138.5 95 q29 0 48 -19.5t19 -50.5q0 -45 -65 -64l-4 -1q-26 -7 -37.5 -19.5t-11.5 -31.5q0 -41 75 -55q31 -6 47 -11q48 -14 73.5 -52t25.5 -95q0 -79 -43.5 -124.5t-116.5 -45.5q-98 0 -158.5 71t-60.5 187z" />
<glyph unicode="&#x201d;" horiz-adv-x="920" d="M37 1323q0 79 43 125.5t117 46.5q97 0 158 -72t61 -188q0 -121 -70.5 -216t-138.5 -95q-29 0 -48.5 20t-19.5 51q0 46 67 65l3 1q26 7 37.5 18.5t11.5 30.5q0 41 -76 55q-31 6 -46 10q-48 15 -73.5 53t-25.5 95zM502 1323q0 79 43 125.5t117 46.5q97 0 158 -72t61 -188 q0 -121 -70.5 -216t-138.5 -95q-29 0 -48.5 20t-19.5 51q0 46 66 65l4 1q26 7 37.5 18.5t11.5 30.5q0 41 -76 55q-31 6 -46 10q-48 15 -73.5 53t-25.5 95z" />
<glyph unicode="&#x201e;" horiz-adv-x="920" d="M37 145q0 79 43 124.5t117 45.5q97 0 158 -71t61 -187q0 -121 -70.5 -216t-138.5 -95q-30 0 -49 19.5t-19 50.5q0 45 66 64l3 1q26 7 38 19.5t12 31.5q0 41 -76 55q-30 6 -47 11q-47 14 -72.5 52t-25.5 95zM502 145q0 79 43 124.5t117 45.5q97 0 158 -71t61 -187 q0 -121 -70.5 -216t-138.5 -95q-30 0 -49 19.5t-19 50.5q0 45 66 64l3 1q26 7 38 19.5t12 31.5q0 41 -76 55q-31 6 -47 11q-47 14 -72.5 52t-25.5 95z" />
<glyph unicode="&#x2022;" horiz-adv-x="1208" d="M307 762q0 123 87 209t210 86q122 0 208.5 -86.5t86.5 -208.5t-87.5 -209.5t-209.5 -87.5q-123 0 -209 87t-86 210z" />
<glyph unicode="&#x2026;" horiz-adv-x="2048" d="M181 152q0 66 47.5 113.5t113.5 47.5t114 -47.5t48 -113.5q0 -68 -47 -115t-115 -47q-67 0 -114 47t-47 115zM863 152q0 66 47.5 113.5t113.5 47.5t114 -47.5t48 -113.5q0 -68 -47 -115t-115 -47q-67 0 -114 47t-47 115zM1547 152q0 66 47.5 113.5t113.5 47.5t114 -47.5 t48 -113.5q0 -68 -47 -115t-115 -47q-67 0 -114 47t-47 115z" />
<glyph unicode="&#x202f;" horiz-adv-x="386" />
<glyph unicode="&#x2039;" horiz-adv-x="408" d="M39 530q0 19 7 36.5t32 51.5l145 189l3 4q33 43 59 43q23 0 43 -18.5t20 -40.5q0 -24 -23 -54l-1 -1l-125 -162q-15 -21 -21 -32.5t-6 -19.5q0 -7 6 -18.5t21 -32.5l124 -161l2 -3q23 -29 23 -53q0 -22 -20 -40.5t-43 -18.5q-15 0 -27 7.5t-35 37.5l-145 198q-2 3 -5 7 q-34 47 -34 81z" />
<glyph unicode="&#x203a;" horiz-adv-x="408" d="M59 258q0 24 24 54l1 1l125 162q15 21 21 32.5t6 18.5q0 8 -6 19.5t-21 32.5l-125 161l-2 3q-23 29 -23 53q0 21 20.5 40t43.5 19q25 0 59 -44l3 -4l145 -188q25 -34 32 -51.5t7 -36.5q0 -34 -35 -82q-3 -4 -4 -5l-146 -199q-22 -30 -34 -37.5t-27 -7.5q-24 0 -44 18.5 t-20 40.5z" />
<glyph unicode="&#x205f;" horiz-adv-x="483" />
<glyph unicode="&#x20ac;" d="M-29 571q0 5 2.5 12t6.5 15l12 29q5 12 14.5 17t32.5 5h35v185h-80q-13 0 -18 3.5t-5 12.5q0 4 2.5 11.5t6.5 15.5l12 28q5 13 14.5 18t32.5 5h35v200q0 183 94 274t283 91q200 0 293.5 -77.5t93.5 -244.5v-45q0 -122 -38.5 -174.5t-125.5 -52.5t-125.5 52.5t-38.5 174.5 v23q0 109 -38 154t-124 45q-87 0 -124.5 -48.5t-37.5 -162.5v-209h258q14 0 18.5 -3t4.5 -12q0 -7 -1.5 -13.5t-4.5 -12.5l-14 -28q-6 -14 -15.5 -19.5t-30.5 -5.5h-215v-185h164q13 0 18 -4t5 -12q0 -4 -2.5 -10.5t-5.5 -14.5l-13 -29q-5 -12 -16 -18t-31 -6h-119v-195 q0 -114 37.5 -162t124.5 -48q86 0 124 44.5t38 153.5v27q0 122 38.5 174.5t125.5 52.5t125.5 -52.5t38.5 -174.5v-64q0 -166 -93.5 -243.5t-293.5 -77.5q-188 0 -282.5 92t-94.5 274v199h-80q-12 0 -17 3.5t-6 12.5z" />
<glyph unicode="&#x2122;" horiz-adv-x="1706" d="M207 1350v112h485v-112h-168v-435h-149v435h-168zM803 915v547h196l127 -332l123 332h197v-547h-135v410l-154 -410h-61l-158 410v-410h-135z" />
<glyph unicode="&#x25fc;" horiz-adv-x="1065" d="M0 0v1065h1065v-1065h-1065z" />
</font>
</defs>
</svg>
